<svg width="70" height="18" viewBox="0 0 70 18" fill="none" xmlns="http://www.w3.org/2000/svg">
<path fill-rule="evenodd" clip-rule="evenodd" d="M8.59509 0.0421543L67.3456 0.00176482C67.9324 0.00241637 68.1547 0.00114001 68.1547 0.00114001C68.1547 0.00114001 69.5598 0.588549 69.5609 2.3185L69.8252 17.8874L69.1745 17.8879C69.1745 17.8879 68.1979 17.8907 67.6114 17.889L8.86089 17.9294C8.70353 17.9321 8.54724 17.9018 8.40126 17.8402C8.25527 17.7786 8.12255 17.687 8.01096 17.5708L0.352131 9.94459C0.130698 9.71216 0.0062463 9.39731 0.00602298 9.06899C0.00579966 8.74068 0.129822 8.42566 0.35094 8.19292L7.75326 0.405834C7.8631 0.289168 7.99424 0.196846 8.13886 0.134366C8.28349 0.0718857 8.43864 0.0405259 8.59509 0.0421543Z" fill="#2C3567"/>
</svg>
