<svg width="102" height="24" viewBox="0 0 102 24" fill="none" xmlns="http://www.w3.org/2000/svg">
<rect width="102" height="24" rx="4" fill="#46CD80"/>
<g clip-path="url(#clip0_607_2068)">
<path d="M18.5 13.5V15.5C18.5 15.7652 18.3946 16.0196 18.2071 16.2071C18.0196 16.3946 17.7652 16.5 17.5 16.5H10.5C10.2348 16.5 9.98043 16.3946 9.79289 16.2071C9.60536 16.0196 9.5 15.7652 9.5 15.5V13.5" stroke="white" stroke-width="1.5" stroke-linecap="round" stroke-linejoin="round"/>
<path d="M11.5 11L14 13.5L16.5 11" stroke="white" stroke-width="1.5" stroke-linecap="round" stroke-linejoin="round"/>
<path d="M14 13.5V7.5" stroke="white" stroke-width="1.5" stroke-linecap="round" stroke-linejoin="round"/>
</g>
<path d="M30.75 11.96C30.75 12.6733 30.6033 13.2967 30.31 13.83C30.0233 14.3567 29.6 14.7667 29.04 15.06C28.4867 15.3533 27.8233 15.5 27.05 15.5H24.69V8.44H27.05C27.8233 8.44 28.4867 8.58667 29.04 8.88C29.6 9.16667 30.0233 9.57333 30.31 10.1C30.6033 10.6267 30.75 11.2467 30.75 11.96ZM26.96 14.47C27.8067 14.47 28.4567 14.25 28.91 13.81C29.3633 13.37 29.59 12.7533 29.59 11.96C29.59 11.1667 29.3633 10.55 28.91 10.11C28.4567 9.67 27.8067 9.45 26.96 9.45H25.83V14.47H26.96ZM34.417 9.92C34.9504 9.92 35.4304 10.0333 35.857 10.26C36.2837 10.4867 36.617 10.8133 36.857 11.24C37.097 11.6667 37.217 12.1667 37.217 12.74C37.217 13.32 37.097 13.8233 36.857 14.25C36.617 14.6767 36.2837 15.0033 35.857 15.23C35.4304 15.4567 34.9504 15.57 34.417 15.57C33.8837 15.57 33.4037 15.4567 32.977 15.23C32.557 15.0033 32.2237 14.6767 31.977 14.25C31.737 13.8167 31.617 13.3133 31.617 12.74C31.617 12.1667 31.737 11.6667 31.977 11.24C32.2237 10.8133 32.557 10.4867 32.977 10.26C33.4037 10.0333 33.8837 9.92 34.417 9.92ZM34.417 10.91C34.1237 10.91 33.8537 10.9767 33.607 11.11C33.3604 11.2433 33.1604 11.45 33.007 11.73C32.8604 12.0033 32.787 12.34 32.787 12.74C32.787 13.1467 32.8604 13.4867 33.007 13.76C33.1604 14.0333 33.3604 14.2367 33.607 14.37C33.8537 14.5033 34.1237 14.57 34.417 14.57C34.7104 14.57 34.9804 14.5033 35.227 14.37C35.4737 14.2367 35.6704 14.0333 35.817 13.76C35.9704 13.4867 36.047 13.1467 36.047 12.74C36.047 12.34 35.9704 12.0033 35.817 11.73C35.6704 11.45 35.4737 11.2433 35.227 11.11C34.9804 10.9767 34.7104 10.91 34.417 10.91ZM46.033 9.99L44.503 15.5H43.243L41.883 11.24L40.503 15.5H39.253L37.723 9.99H38.873L39.923 14.45L41.303 9.99H42.503L43.903 14.45L44.953 9.99H46.033ZM49.8891 9.9C50.5291 9.9 51.0425 10.1067 51.4291 10.52C51.8158 10.9333 52.0091 11.5233 52.0091 12.29V15.5H50.8691V12.41C50.8691 11.9167 50.7425 11.5367 50.4891 11.27C50.2358 10.9967 49.8891 10.86 49.4491 10.86C48.9958 10.86 48.6325 11.0067 48.3591 11.3C48.0858 11.5867 47.9491 12.01 47.9491 12.57V15.5H46.8091V9.99H47.9491V11.2C48.0958 10.7867 48.3425 10.4667 48.6891 10.24C49.0358 10.0133 49.4358 9.9 49.8891 9.9ZM54.4823 8.1V15.5H53.3423V8.1H54.4823ZM58.3819 9.92C58.9152 9.92 59.3952 10.0333 59.8219 10.26C60.2485 10.4867 60.5819 10.8133 60.8219 11.24C61.0619 11.6667 61.1819 12.1667 61.1819 12.74C61.1819 13.32 61.0619 13.8233 60.8219 14.25C60.5819 14.6767 60.2485 15.0033 59.8219 15.23C59.3952 15.4567 58.9152 15.57 58.3819 15.57C57.8485 15.57 57.3685 15.4567 56.9419 15.23C56.5219 15.0033 56.1885 14.6767 55.9419 14.25C55.7019 13.8167 55.5819 13.3133 55.5819 12.74C55.5819 12.1667 55.7019 11.6667 55.9419 11.24C56.1885 10.8133 56.5219 10.4867 56.9419 10.26C57.3685 10.0333 57.8485 9.92 58.3819 9.92ZM58.3819 10.91C58.0885 10.91 57.8185 10.9767 57.5719 11.11C57.3252 11.2433 57.1252 11.45 56.9719 11.73C56.8252 12.0033 56.7519 12.34 56.7519 12.74C56.7519 13.1467 56.8252 13.4867 56.9719 13.76C57.1252 14.0333 57.3252 14.2367 57.5719 14.37C57.8185 14.5033 58.0885 14.57 58.3819 14.57C58.6752 14.57 58.9452 14.5033 59.1919 14.37C59.4385 14.2367 59.6352 14.0333 59.7819 13.76C59.9352 13.4867 60.0119 13.1467 60.0119 12.74C60.0119 12.34 59.9352 12.0033 59.7819 11.73C59.6352 11.45 59.4385 11.2433 59.1919 11.11C58.9452 10.9767 58.6752 10.91 58.3819 10.91ZM64.4879 9.92C64.9879 9.92 65.4146 10.0433 65.7679 10.29C66.1212 10.5367 66.3712 10.8633 66.5179 11.27V9.99H67.6579V15.5H66.5179V14.22C66.3712 14.6267 66.1212 14.9533 65.7679 15.2C65.4146 15.4467 64.9879 15.57 64.4879 15.57C64.0079 15.57 63.5779 15.4567 63.1979 15.23C62.8246 15.0033 62.5312 14.6767 62.3179 14.25C62.1046 13.8233 61.9979 13.32 61.9979 12.74C61.9979 12.1667 62.1046 11.6667 62.3179 11.24C62.5312 10.8133 62.8246 10.4867 63.1979 10.26C63.5779 10.0333 64.0079 9.92 64.4879 9.92ZM64.8379 10.92C64.3312 10.92 63.9246 11.0833 63.6179 11.41C63.3179 11.73 63.1679 12.1733 63.1679 12.74C63.1679 13.3067 63.3179 13.7533 63.6179 14.08C63.9246 14.4 64.3312 14.56 64.8379 14.56C65.1579 14.56 65.4446 14.4867 65.6979 14.34C65.9512 14.1867 66.1512 13.9733 66.2979 13.7C66.4446 13.4267 66.5179 13.1067 66.5179 12.74C66.5179 12.38 66.4446 12.0633 66.2979 11.79C66.1512 11.51 65.9512 11.2967 65.6979 11.15C65.4446 10.9967 65.1579 10.92 64.8379 10.92ZM71.2359 9.92C71.7359 9.92 72.1626 10.0433 72.5159 10.29C72.8693 10.5367 73.1159 10.8633 73.2559 11.27V8.1H74.4059V15.5H73.2559V14.22C73.1159 14.6267 72.8693 14.9533 72.5159 15.2C72.1626 15.4467 71.7359 15.57 71.2359 15.57C70.7559 15.57 70.3259 15.4567 69.9459 15.23C69.5726 15.0033 69.2793 14.6767 69.0659 14.25C68.8526 13.8233 68.7459 13.32 68.7459 12.74C68.7459 12.1667 68.8526 11.6667 69.0659 11.24C69.2793 10.8133 69.5726 10.4867 69.9459 10.26C70.3259 10.0333 70.7559 9.92 71.2359 9.92ZM71.5859 10.92C71.0793 10.92 70.6726 11.0833 70.3659 11.41C70.0659 11.73 69.9159 12.1733 69.9159 12.74C69.9159 13.3067 70.0659 13.7533 70.3659 14.08C70.6726 14.4 71.0793 14.56 71.5859 14.56C71.9059 14.56 72.1926 14.4867 72.4459 14.34C72.6993 14.1867 72.8993 13.9733 73.0459 13.7C73.1926 13.4267 73.2659 13.1067 73.2659 12.74C73.2659 12.38 73.1926 12.0633 73.0459 11.79C72.8993 11.51 72.6993 11.2967 72.4459 11.15C72.1926 10.9967 71.9059 10.92 71.5859 10.92ZM79.2577 14.61H81.6977V15.5H78.1177V8.44H79.2577V14.61ZM82.4304 8.39C82.4304 8.19667 82.4971 8.03667 82.6304 7.91C82.7637 7.78333 82.9404 7.72 83.1604 7.72C83.3804 7.72 83.5571 7.78333 83.6904 7.91C83.8304 8.03667 83.9004 8.19667 83.9004 8.39C83.9004 8.58333 83.8304 8.74 83.6904 8.86C83.5571 8.98 83.3804 9.04 83.1604 9.04C82.9404 9.04 82.7637 8.98 82.6304 8.86C82.4971 8.74 82.4304 8.58333 82.4304 8.39ZM83.7304 9.99V15.5H82.5904V9.99H83.7304ZM86.9199 9.92C87.5666 9.92 88.0833 10.0867 88.4699 10.42C88.8633 10.7467 89.1033 11.1867 89.1899 11.74H88.1099C88.0633 11.44 87.9333 11.2 87.7199 11.02C87.5133 10.8333 87.2366 10.74 86.8899 10.74C86.6033 10.74 86.3799 10.81 86.2199 10.95C86.0666 11.0833 85.9899 11.2667 85.9899 11.5C85.9899 11.6733 86.0466 11.8133 86.1599 11.92C86.2733 12.0267 86.4133 12.11 86.5799 12.17C86.7533 12.23 86.9966 12.2967 87.3099 12.37C87.7233 12.4633 88.0566 12.56 88.3099 12.66C88.5699 12.76 88.7899 12.92 88.9699 13.14C89.1566 13.3533 89.2499 13.6467 89.2499 14.02C89.2499 14.48 89.0733 14.8533 88.7199 15.14C88.3733 15.4267 87.9033 15.57 87.3099 15.57C86.6233 15.57 86.0666 15.41 85.6399 15.09C85.2199 14.77 84.9666 14.3233 84.8799 13.75H85.9899C86.0233 14.05 86.1566 14.2933 86.3899 14.48C86.6233 14.6667 86.9299 14.76 87.3099 14.76C87.5833 14.76 87.7966 14.69 87.9499 14.55C88.1099 14.4033 88.1899 14.22 88.1899 14C88.1899 13.8067 88.1299 13.6533 88.0099 13.54C87.8899 13.4267 87.7399 13.34 87.5599 13.28C87.3799 13.2133 87.1333 13.1467 86.8199 13.08C86.4199 12.9867 86.0933 12.8933 85.8399 12.8C85.5933 12.7067 85.3799 12.5567 85.1999 12.35C85.0266 12.1367 84.9399 11.85 84.9399 11.49C84.9399 11.0233 85.1133 10.6467 85.4599 10.36C85.8133 10.0667 86.2999 9.92 86.9199 9.92ZM93.1631 14.51V15.5H92.4631C91.8765 15.5 91.4298 15.36 91.1231 15.08C90.8231 14.7933 90.6731 14.32 90.6731 13.66V10.96H89.8831V9.99H90.6731V8.62H91.8231V9.99H93.1531V10.96H91.8231V13.68C91.8231 13.9933 91.8798 14.21 91.9931 14.33C92.1131 14.45 92.3198 14.51 92.6131 14.51H93.1631Z" fill="white"/>
<defs>
<clipPath id="clip0_607_2068">
<rect width="12" height="12" fill="white" transform="translate(8 6)"/>
</clipPath>
</defs>
</svg>
