<svg width="13" height="11" viewBox="0 0 13 11" fill="none" xmlns="http://www.w3.org/2000/svg">
<g clip-path="url(#clip0_1110_1864)">
<path d="M1.41699 6.41797C1.96928 6.41797 2.41699 5.97025 2.41699 5.41797C2.41699 4.86568 1.96928 4.41797 1.41699 4.41797C0.864707 4.41797 0.416992 4.86568 0.416992 5.41797C0.416992 5.97025 0.864707 6.41797 1.41699 6.41797Z" fill="#2F3567"/>
<path d="M1.41699 2.33203C1.96928 2.33203 2.41699 1.88432 2.41699 1.33203C2.41699 0.779746 1.96928 0.332031 1.41699 0.332031C0.864707 0.332031 0.416992 0.779746 0.416992 1.33203C0.416992 1.88432 0.864707 2.33203 1.41699 2.33203Z" fill="#2F3567"/>
<path d="M1.4165 10.5C1.96879 10.5 2.4165 10.0523 2.4165 9.5C2.4165 8.94772 1.96879 8.5 1.4165 8.5C0.864219 8.5 0.416504 8.94772 0.416504 9.5C0.416504 10.0523 0.864219 10.5 1.4165 10.5Z" fill="#2F3567"/>
</g>
<g clip-path="url(#clip1_1110_1864)">
<path d="M6.41699 6.41797C6.96928 6.41797 7.41699 5.97025 7.41699 5.41797C7.41699 4.86568 6.96928 4.41797 6.41699 4.41797C5.86471 4.41797 5.41699 4.86568 5.41699 5.41797C5.41699 5.97025 5.86471 6.41797 6.41699 6.41797Z" fill="#2F3567"/>
<path d="M6.41699 2.33203C6.96928 2.33203 7.41699 1.88432 7.41699 1.33203C7.41699 0.779746 6.96928 0.332031 6.41699 0.332031C5.86471 0.332031 5.41699 0.779746 5.41699 1.33203C5.41699 1.88432 5.86471 2.33203 6.41699 2.33203Z" fill="#2F3567"/>
<path d="M6.4165 10.5C6.96879 10.5 7.4165 10.0523 7.4165 9.5C7.4165 8.94772 6.96879 8.5 6.4165 8.5C5.86422 8.5 5.4165 8.94772 5.4165 9.5C5.4165 10.0523 5.86422 10.5 6.4165 10.5Z" fill="#2F3567"/>
</g>
<g clip-path="url(#clip2_1110_1864)">
<path d="M11.417 6.41797C11.9693 6.41797 12.417 5.97025 12.417 5.41797C12.417 4.86568 11.9693 4.41797 11.417 4.41797C10.8647 4.41797 10.417 4.86568 10.417 5.41797C10.417 5.97025 10.8647 6.41797 11.417 6.41797Z" fill="#2F3567"/>
<path d="M11.417 2.33203C11.9693 2.33203 12.417 1.88432 12.417 1.33203C12.417 0.779746 11.9693 0.332031 11.417 0.332031C10.8647 0.332031 10.417 0.779746 10.417 1.33203C10.417 1.88432 10.8647 2.33203 11.417 2.33203Z" fill="#2F3567"/>
<path d="M11.4165 10.5C11.9688 10.5 12.4165 10.0523 12.4165 9.5C12.4165 8.94772 11.9688 8.5 11.4165 8.5C10.8642 8.5 10.4165 8.94772 10.4165 9.5C10.4165 10.0523 10.8642 10.5 11.4165 10.5Z" fill="#2F3567"/>
</g>
<defs>
<clipPath id="clip0_1110_1864">
<rect width="3" height="11" fill="white"/>
</clipPath>
<clipPath id="clip1_1110_1864">
<rect width="3" height="11" fill="white" transform="translate(5)"/>
</clipPath>
<clipPath id="clip2_1110_1864">
<rect width="3" height="11" fill="white" transform="translate(10)"/>
</clipPath>
</defs>
</svg>
