<svg width="142" height="36" viewBox="0 0 142 36" fill="none" xmlns="http://www.w3.org/2000/svg">
<path fill-rule="evenodd" clip-rule="evenodd" d="M10.0944 14.3833H9.52843C9.07181 13.806 8.80857 13.1084 8.7738 12.3833V10.9287C8.92211 10.2085 8.92211 9.46716 8.7738 8.74691L8.39648 7.656V6.56509C8.39648 6.56509 8.551 6.02255 9.05679 6H9.62276C9.62276 6 10.3163 6.04218 10.2831 6.56509V7.656C10.2831 7.656 9.93895 9.47073 10.4717 11.1105V12.3833C10.4717 12.3833 10.6064 14.0456 10.0944 14.3833Z" fill="#2F3567"/>
<path d="M10.0943 14.3809H9.52832V15.6536H10.0943V14.3809Z" fill="#FF6F3F"/>
<path d="M9.90545 15.4717H9.7168V16.7444H9.90545V15.4717Z" fill="#FF6F3F"/>
<path fill-rule="evenodd" clip-rule="evenodd" d="M17.0739 13.8392H16.5079C16.0513 13.262 15.788 12.5643 15.7533 11.8392V10.3847C15.7533 10.3847 16.0291 9.73195 15.7533 8.20286L15.376 7.11195V6.02104C15.376 6.02104 15.4362 5.49813 15.942 5.47559H16.5079C16.5079 5.47559 17.2958 5.49813 17.2626 6.02104V7.11195C17.2626 7.11195 16.9184 8.92668 17.4512 10.5665V11.8392C17.4512 11.8392 17.5859 13.5016 17.0739 13.8392Z" fill="#2F3567"/>
<path d="M17.0738 13.8389H16.5078V15.1116H17.0738V13.8389Z" fill="#FF6F3F"/>
<path d="M16.8854 14.9287H16.6968V16.2014H16.8854V14.9287Z" fill="#FF6F3F"/>
<path fill-rule="evenodd" clip-rule="evenodd" d="M13.3016 12.7476H12.7356C12.4855 12.2205 12.3433 11.652 12.3168 11.073V9.93847C12.3168 9.93847 12.5318 9.42938 12.3168 8.23665L12.0225 7.38574V6.53483C12.0333 6.42554 12.0833 6.32331 12.1639 6.24568C12.2444 6.16804 12.3505 6.11985 12.4639 6.10938H12.9054C12.9054 6.10938 13.5198 6.12756 13.494 6.53483V7.38574C13.494 7.38574 13.2261 8.80065 13.6411 10.0803V11.0734C13.6411 11.0734 13.701 12.4841 13.3016 12.7476Z" fill="#2F3567"/>
<path fill-rule="evenodd" clip-rule="evenodd" d="M12.7349 12.749H13.3008V13.6586H12.7349V12.749Z" fill="#FF6F3F"/>
<path d="M13.2006 13.4824H13.0542V14.4711H13.2006V13.4824Z" fill="#FF6F3F"/>
<path fill-rule="evenodd" clip-rule="evenodd" d="M21.4133 9.8372L23.2999 9.10992V6.74629C23.2999 6.74629 23.7417 0.213015 15.3763 0.564469H8.39591L5.7547 0.746287C5.7547 0.746287 0.365306 0.722106 0.472275 4.9281L1.79288 30.7463C1.79288 30.7463 2.10096 35.7401 6.69799 35.4736C6.69799 35.4736 15.0429 35.7037 21.036 33.2917C21.036 33.2917 24.2117 31.9946 24.2432 28.5645L24.0545 21.1099C24.0545 21.1099 24.1362 18.0674 21.036 19.2917L17.2628 20.5645L16.8855 22.5645C16.8855 22.5645 18.6274 21.5946 19.5267 21.4736C19.5267 21.4736 22.3628 20.9401 22.1679 23.1099C22.1679 23.1099 22.5609 25.8977 20.6587 26.9281C20.6587 26.9281 18.5048 28.6554 13.4897 29.1099C13.4897 29.1099 13.5683 28.1401 12.9237 27.6554C12.9237 27.6554 12.8765 26.019 14.8103 25.6554V23.6554C14.8103 23.6554 11.9648 23.3826 13.1124 20.5645L11.6031 19.2917L10.8485 19.8372C10.8485 19.8372 9.63785 20.2614 9.15054 19.4736L8.58457 18.019H6.50933C6.50933 18.019 6.39934 19.7765 5.18873 19.8372C4.85193 19.8901 4.50706 19.8685 4.18021 19.774C3.85336 19.6795 3.5531 19.5146 3.30215 19.2917L2.73617 6.01901C2.73617 6.01901 2.59468 3.17047 6.50933 3.10992H16.3195C16.3195 3.10992 20.8002 2.74629 21.2247 6.74629L21.4133 9.8372Z" fill="#FF6F3F"/>
<path d="M7.83036 27.6528C9.39325 27.6528 10.6602 26.4317 10.6602 24.9255C10.6602 23.4193 9.39325 22.1982 7.83036 22.1982C6.26746 22.1982 5.00049 23.4193 5.00049 24.9255C5.00049 26.4317 6.26746 27.6528 7.83036 27.6528Z" fill="white"/>
<path d="M14.0557 33.0629C14.759 33.0629 15.3291 32.5135 15.3291 31.8357C15.3291 31.1579 14.759 30.6084 14.0557 30.6084C13.3524 30.6084 12.7822 31.1579 12.7822 31.8357C12.7822 32.5135 13.3524 33.0629 14.0557 33.0629Z" fill="white"/>
<path d="M14.7153 1.65234H9.43289C9.2766 1.65234 9.1499 1.77452 9.1499 1.92522C9.1499 2.07593 9.2766 2.1981 9.43289 2.1981H14.7153C14.8716 2.1981 14.9983 2.07593 14.9983 1.92522C14.9983 1.77452 14.8716 1.65234 14.7153 1.65234Z" fill="white"/>
<path d="M47.0703 12.0411V24H44.6717V15.6562L41.6049 24H39.5146L36.4478 15.6905V24H34.0321V12.0411H36.9618L40.594 21.036L44.1577 12.0411H47.0703ZM53.6438 14.3884C54.569 14.3884 55.3971 14.5825 56.1281 14.9709C56.8705 15.3592 57.453 15.9246 57.8756 16.6671C58.2983 17.3981 58.5096 18.2604 58.5096 19.2541C58.5096 20.2479 58.2983 21.1102 57.8756 21.8412C57.453 22.5722 56.8705 23.1376 56.1281 23.5374C55.3971 23.9258 54.569 24.1199 53.6438 24.1199C52.7186 24.1199 51.8848 23.9258 51.1424 23.5374C50.4113 23.1376 49.8345 22.5722 49.4119 21.8412C48.9893 21.1102 48.778 20.2479 48.778 19.2541C48.778 18.2604 48.9893 17.3981 49.4119 16.6671C49.8345 15.9246 50.4113 15.3592 51.1424 14.9709C51.8848 14.5825 52.7186 14.3884 53.6438 14.3884ZM53.6438 16.4786C52.9699 16.4786 52.3988 16.7185 51.9305 17.1982C51.4622 17.6665 51.228 18.3518 51.228 19.2541C51.228 20.1565 51.4622 20.8475 51.9305 21.3272C52.3988 21.7955 52.9699 22.0297 53.6438 22.0297C54.3177 22.0297 54.8888 21.7955 55.3571 21.3272C55.8254 20.8475 56.0595 20.1565 56.0595 19.2541C56.0595 18.3518 55.8254 17.6665 55.3571 17.1982C54.8888 16.7185 54.3177 16.4786 53.6438 16.4786ZM65.8879 14.3884C66.6874 14.3884 67.407 14.5825 68.0467 14.9709C68.6863 15.3592 69.1831 15.9246 69.5372 16.6671C69.9027 17.3981 70.0855 18.2604 70.0855 19.2541C70.0855 20.2479 69.9027 21.1159 69.5372 21.8584C69.1831 22.5894 68.6863 23.1491 68.0467 23.5374C67.407 23.9258 66.6874 24.1199 65.8879 24.1199C65.0883 24.1199 64.403 23.9315 63.8319 23.5545C63.2722 23.1662 62.8725 22.6522 62.6326 22.0126V24H60.2168V11.3215H62.6326V16.4786C62.8725 15.839 63.2722 15.3307 63.8319 14.9538C64.403 14.5768 65.0883 14.3884 65.8879 14.3884ZM65.134 16.4957C64.403 16.4957 63.7977 16.747 63.3179 17.2496C62.8496 17.7407 62.6155 18.4089 62.6155 19.2541C62.6155 20.088 62.8496 20.7561 63.3179 21.2587C63.7977 21.7499 64.403 21.9954 65.134 21.9954C65.8879 21.9954 66.4933 21.7556 66.9501 21.2758C67.407 20.7847 67.6355 20.1108 67.6355 19.2541C67.6355 18.3975 67.407 17.7236 66.9501 17.2324C66.4933 16.7413 65.8879 16.4957 65.134 16.4957ZM71.5209 11.7841C71.5209 11.3958 71.658 11.0817 71.9321 10.8418C72.2062 10.5905 72.566 10.4649 73.0115 10.4649C73.4569 10.4649 73.8167 10.5905 74.0909 10.8418C74.365 11.0817 74.5021 11.3958 74.5021 11.7841C74.5021 12.1611 74.365 12.4752 74.0909 12.7265C73.8167 12.9663 73.4569 13.0862 73.0115 13.0862C72.566 13.0862 72.2062 12.9663 71.9321 12.7265C71.658 12.4752 71.5209 12.1611 71.5209 11.7841ZM74.2108 14.5083V24H71.795V14.5083H74.2108ZM81.9987 11.7841C83.4722 11.7841 84.6943 12.1496 85.6652 12.8807C86.6361 13.6002 87.2586 14.5768 87.5327 15.8104H84.997C84.7571 15.2621 84.3745 14.8281 83.8491 14.5083C83.3351 14.1771 82.724 14.0114 82.0158 14.0114C81.3191 14.0114 80.7023 14.1713 80.1655 14.4912C79.6286 14.811 79.2117 15.2679 78.9148 15.8618C78.6178 16.4557 78.4693 17.1525 78.4693 17.952C78.4693 19.2199 78.8063 20.2079 79.4802 20.9161C80.1655 21.6242 81.0964 21.9783 82.2728 21.9783C83.1409 21.9783 83.8833 21.7213 84.5001 21.2073C85.1283 20.6933 85.5338 19.9794 85.7166 19.0657H81.6218V17.3352H87.7383V19.6653C87.5669 20.4649 87.23 21.2016 86.7274 21.8755C86.2363 22.5494 85.5852 23.0919 84.7743 23.5031C83.9747 23.9029 83.0552 24.1028 82.0158 24.1028C80.828 24.1028 79.7771 23.8458 78.8634 23.3318C77.961 22.8064 77.2586 22.0811 76.756 21.1559C76.2648 20.2193 76.0193 19.1513 76.0193 17.952C76.0193 16.7527 76.2648 15.6905 76.756 14.7653C77.2586 13.8287 77.961 13.0977 78.8634 12.5723C79.7657 12.0468 80.8108 11.7841 81.9987 11.7841ZM93.265 14.3884C94.0646 14.3884 94.7499 14.5768 95.321 14.9538C95.8921 15.3307 96.2976 15.839 96.5374 16.4786V14.5083H98.9361V24H96.5374V22.0126C96.2976 22.6522 95.8921 23.1662 95.321 23.5545C94.7499 23.9315 94.0646 24.1199 93.265 24.1199C92.4655 24.1199 91.7459 23.9258 91.1063 23.5374C90.4666 23.1491 89.9641 22.5894 89.5986 21.8584C89.2445 21.1159 89.0674 20.2479 89.0674 19.2541C89.0674 18.2604 89.2445 17.3981 89.5986 16.6671C89.9641 15.9246 90.4666 15.3592 91.1063 14.9709C91.7459 14.5825 92.4655 14.3884 93.265 14.3884ZM94.0189 16.4957C93.265 16.4957 92.6597 16.7413 92.2028 17.2324C91.7459 17.7236 91.5175 18.3975 91.5175 19.2541C91.5175 20.1108 91.7459 20.7847 92.2028 21.2758C92.6597 21.7556 93.265 21.9954 94.0189 21.9954C94.7499 21.9954 95.3495 21.7499 95.8179 21.2587C96.2976 20.7561 96.5374 20.088 96.5374 19.2541C96.5374 18.4089 96.2976 17.7407 95.8179 17.2496C95.3495 16.747 94.7499 16.4957 94.0189 16.4957ZM103.541 16.3244C103.895 15.719 104.363 15.245 104.946 14.9024C105.529 14.5483 106.18 14.3712 106.899 14.3712V16.9583H106.197C104.426 16.9583 103.541 17.7807 103.541 19.4255V24H101.125V14.5083H103.541V16.3244ZM111.954 14.3884C112.754 14.3884 113.439 14.5768 114.01 14.9538C114.581 15.3307 114.987 15.839 115.227 16.4786V14.5083H117.625V24H115.227V22.0126C114.987 22.6522 114.581 23.1662 114.01 23.5545C113.439 23.9315 112.754 24.1199 111.954 24.1199C111.155 24.1199 110.435 23.9258 109.795 23.5374C109.156 23.1491 108.653 22.5894 108.288 21.8584C107.934 21.1159 107.757 20.2479 107.757 19.2541C107.757 18.2604 107.934 17.3981 108.288 16.6671C108.653 15.9246 109.156 15.3592 109.795 14.9709C110.435 14.5825 111.155 14.3884 111.954 14.3884ZM112.708 16.4957C111.954 16.4957 111.349 16.7413 110.892 17.2324C110.435 17.7236 110.207 18.3975 110.207 19.2541C110.207 20.1108 110.435 20.7847 110.892 21.2758C111.349 21.7556 111.954 21.9954 112.708 21.9954C113.439 21.9954 114.039 21.7499 114.507 21.2587C114.987 20.7561 115.227 20.088 115.227 19.2541C115.227 18.4089 114.987 17.7407 114.507 17.2496C114.039 16.747 113.439 16.4957 112.708 16.4957ZM123.532 14.3884C124.332 14.3884 125.017 14.5768 125.588 14.9538C126.159 15.3307 126.565 15.839 126.805 16.4786V14.5083H129.203V24.0343C129.203 24.9138 129.026 25.7019 128.672 26.3986C128.33 27.1068 127.81 27.6608 127.113 28.0605C126.428 28.4603 125.594 28.6602 124.612 28.6602C123.241 28.6602 122.133 28.3347 121.288 27.6836C120.443 27.0325 119.929 26.1473 119.746 25.028H122.127C122.264 25.5077 122.527 25.8789 122.916 26.1416C123.315 26.4158 123.824 26.5528 124.44 26.5528C125.149 26.5528 125.72 26.3415 126.154 25.9189C126.588 25.5077 126.805 24.8795 126.805 24.0343V22.0126C126.565 22.6522 126.159 23.1662 125.588 23.5545C125.017 23.9315 124.332 24.1199 123.532 24.1199C122.733 24.1199 122.013 23.9258 121.374 23.5374C120.734 23.1491 120.231 22.5894 119.866 21.8584C119.512 21.1159 119.335 20.2479 119.335 19.2541C119.335 18.2604 119.512 17.3981 119.866 16.6671C120.231 15.9246 120.734 15.3592 121.374 14.9709C122.013 14.5825 122.733 14.3884 123.532 14.3884ZM124.286 16.4957C123.532 16.4957 122.927 16.7413 122.47 17.2324C122.013 17.7236 121.785 18.3975 121.785 19.2541C121.785 20.1108 122.013 20.7847 122.47 21.2758C122.927 21.7556 123.532 21.9954 124.286 21.9954C125.017 21.9954 125.617 21.7499 126.085 21.2587C126.565 20.7561 126.805 20.088 126.805 19.2541C126.805 18.4089 126.565 17.7407 126.085 17.2496C125.617 16.747 125.017 16.4957 124.286 16.4957ZM140.319 18.8944C140.319 19.1342 140.29 19.4083 140.233 19.7167H133.277C133.312 20.562 133.54 21.1845 133.963 21.5842C134.385 21.984 134.911 22.1839 135.539 22.1839C136.098 22.1839 136.561 22.0468 136.927 21.7727C137.304 21.4986 137.543 21.1274 137.646 20.6591H140.199C140.073 21.3215 139.805 21.9155 139.394 22.4409C138.983 22.9663 138.451 23.3775 137.8 23.6745C137.161 23.9714 136.447 24.1199 135.659 24.1199C134.734 24.1199 133.911 23.9258 133.192 23.5374C132.472 23.1376 131.912 22.5722 131.513 21.8412C131.113 21.1102 130.913 20.2479 130.913 19.2541C130.913 18.2604 131.113 17.3981 131.513 16.6671C131.912 15.9246 132.472 15.3592 133.192 14.9709C133.911 14.5825 134.734 14.3884 135.659 14.3884C136.595 14.3884 137.412 14.5825 138.109 14.9709C138.817 15.3592 139.359 15.8961 139.736 16.5814C140.125 17.2553 140.319 18.0263 140.319 18.8944ZM137.886 18.6545C137.92 17.8778 137.715 17.2896 137.269 16.8898C136.835 16.49 136.298 16.2901 135.659 16.2901C135.008 16.2901 134.459 16.49 134.014 16.8898C133.569 17.2896 133.323 17.8778 133.277 18.6545H137.886Z" fill="#2F3567"/>
</svg>
