<svg width="24" height="24" viewBox="0 0 24 24" fill="none" xmlns="http://www.w3.org/2000/svg">
<rect x="0.499512" y="0.5" width="23" height="23" rx="11.5" stroke="#F1F1F1"/>
<path d="M15.9995 9.33301C15.9995 8.27214 15.5781 7.25473 14.8279 6.50458C14.0778 5.75444 13.0604 5.33301 11.9995 5.33301C10.9386 5.33301 9.92123 5.75444 9.17108 6.50458C8.42094 7.25473 7.99951 8.27214 7.99951 9.33301C7.99951 13.9997 5.99951 15.333 5.99951 15.333H17.9995C17.9995 15.333 15.9995 13.9997 15.9995 9.33301Z" fill="#FF6F3F" stroke="#FF6F3F" stroke-width="1.2" stroke-linecap="round" stroke-linejoin="round"/>
<path d="M13.1529 18C13.0357 18.2021 12.8674 18.3698 12.665 18.4864C12.4626 18.6029 12.2331 18.6643 11.9995 18.6643C11.7659 18.6643 11.5365 18.6029 11.334 18.4864C11.1316 18.3698 10.9634 18.2021 10.8462 18" stroke="#FF6F3F" stroke-width="1.2" stroke-linecap="round" stroke-linejoin="round"/>
<circle cx="17.9995" cy="5" r="4.5" fill="#46CD80" stroke="white"/>
</svg>
