<svg width="48" height="48" viewBox="0 0 48 48" fill="none" xmlns="http://www.w3.org/2000/svg">
<rect x="0.999268" y="1.00098" width="46" height="46" rx="23" stroke="#F1F1F1" stroke-width="2"/>
<path d="M31.9995 18.667C31.9995 16.5453 31.1567 14.5104 29.6564 13.0101C28.1561 11.5098 26.1213 10.667 23.9995 10.667C21.8778 10.667 19.843 11.5098 18.3427 13.0101C16.8424 14.5104 15.9995 16.5453 15.9995 18.667C15.9995 28.0003 11.9995 30.667 11.9995 30.667H35.9995C35.9995 30.667 31.9995 28.0003 31.9995 18.667Z" fill="#FF6F3F" stroke="#FF6F3F" stroke-width="2.4" stroke-linecap="round" stroke-linejoin="round"/>
<path d="M26.3062 35.999C26.0718 36.4031 25.7353 36.7386 25.3305 36.9717C24.9257 37.2049 24.4667 37.3276 23.9995 37.3276C23.5324 37.3276 23.0734 37.2049 22.6686 36.9717C22.2637 36.7386 21.9273 36.4031 21.6929 35.999" stroke="#FF6F3F" stroke-width="2.4" stroke-linecap="round" stroke-linejoin="round"/>
<circle cx="35.999" cy="10.001" r="9.00001" fill="#46CD80" stroke="white" stroke-width="2"/>
</svg>
