<svg width="63" height="20" viewBox="0 0 63 20" fill="none" xmlns="http://www.w3.org/2000/svg">
<rect width="20" height="20" rx="4" fill="white"/>
<g clip-path="url(#clip0_1178_2288)">
<g clip-path="url(#clip1_1178_2288)">
<path fill-rule="evenodd" clip-rule="evenodd" d="M9.05291 8.49266H8.82564C8.64228 8.25214 8.53657 7.96145 8.52261 7.65933V7.05327C8.52261 7.05327 8.63337 6.7813 8.52261 6.14418L8.37109 5.68963V5.23509C8.37109 5.23509 8.39526 5.01721 8.59837 5.00781H8.82564C8.82564 5.00781 9.142 5.01721 9.12867 5.23509V5.68963C9.12867 5.68963 8.99049 6.44577 9.20443 7.12902V7.65933C9.20443 7.65933 9.25852 8.35198 9.05291 8.49266Z" fill="#FF6F3F"/>
<path d="M9.05296 8.49121H8.82568V9.02151H9.05296V8.49121Z" fill="#FF6F3F"/>
<path d="M8.97712 8.94531H8.90137V9.47562H8.97712V8.94531Z" fill="#FF6F3F"/>
<path fill-rule="evenodd" clip-rule="evenodd" d="M11.8561 8.2661H11.6289C11.4455 8.02558 11.3398 7.73489 11.3258 7.43277V6.8267C11.3258 6.8267 11.4366 6.55473 11.3258 5.91761L11.1743 5.46307V5.00852C11.1743 5.00852 11.1985 4.79064 11.4016 4.78125H11.6289C11.6289 4.78125 11.9452 4.79064 11.9319 5.00852V5.46307C11.9319 5.46307 11.7937 6.2192 12.0076 6.90246V7.43277C12.0076 7.43277 12.0617 8.12542 11.8561 8.2661Z" fill="#FF6F3F"/>
<path d="M11.8562 8.26465H11.6289V8.79495H11.8562V8.26465Z" fill="#FF6F3F"/>
<path d="M11.7803 8.71875H11.7046V9.24905H11.7803V8.71875Z" fill="#FF6F3F"/>
<path fill-rule="evenodd" clip-rule="evenodd" d="M10.3408 7.81181H10.1135C10.0131 7.59222 9.95597 7.35531 9.94533 7.11408V6.64135C9.94533 6.64135 10.0317 6.42923 9.94533 5.93226L9.82715 5.57772V5.22317C9.83151 5.17763 9.85159 5.13504 9.88394 5.10269C9.91629 5.07034 9.95888 5.05026 10.0044 5.0459H10.1817C10.1817 5.0459 10.4284 5.05347 10.4181 5.22317V5.57772C10.4181 5.57772 10.3105 6.16726 10.4771 6.70044V7.11423C10.4771 7.11423 10.5012 7.70203 10.3408 7.81181Z" fill="#FF6F3F"/>
<path fill-rule="evenodd" clip-rule="evenodd" d="M10.1138 7.8125H10.341V8.19129H10.1138V7.8125Z" fill="#FF6F3F"/>
<path d="M10.3004 8.11914H10.2412V8.53111H10.3004V8.11914Z" fill="#FF6F3F"/>
<path fill-rule="evenodd" clip-rule="evenodd" d="M13.5987 6.59883L14.3563 6.2958V5.31095C14.3563 5.31095 14.5337 2.58876 11.1744 2.7352H8.37141L7.31081 2.81095C7.31081 2.81095 5.14664 2.80088 5.1896 4.55338L5.7199 15.311C5.7199 15.311 5.84361 17.3917 7.6896 17.2806C7.6896 17.2806 11.0406 17.3766 13.4472 16.3716C13.4472 16.3716 14.7224 15.8311 14.7351 14.4019L14.6593 11.2958C14.6593 11.2958 14.6921 10.0281 13.4472 10.5382L11.932 11.0685L11.7805 11.9019C11.7805 11.9019 12.48 11.4978 12.8411 11.4473C12.8411 11.4473 13.98 11.225 13.9017 12.1291C13.9017 12.1291 14.0595 13.2907 13.2957 13.72C13.2957 13.72 12.4307 14.4397 10.4169 14.6291C10.4169 14.6291 10.4485 14.225 10.1896 14.0231C10.1896 14.0231 10.1707 13.3413 10.9472 13.1897V12.3564C10.9472 12.3564 9.80452 12.2428 10.2654 11.0685L9.65929 10.5382L9.35626 10.7655C9.35626 10.7655 8.87013 10.9422 8.67444 10.614L8.44717 10.0079H7.61384C7.61384 10.0079 7.56967 10.7402 7.08354 10.7655C6.94829 10.7875 6.80981 10.7785 6.67856 10.7392C6.54731 10.6998 6.42673 10.6311 6.32596 10.5382L6.09869 5.00792C6.09869 5.00792 6.04187 3.82103 7.61384 3.7958H11.5532C11.5532 3.7958 13.3525 3.64429 13.5229 5.31095L13.5987 6.59883Z" fill="#FF6F3F"/>
<path d="M8.14418 14.0227C8.77177 14.0227 9.28054 13.514 9.28054 12.8864C9.28054 12.2588 8.77177 11.75 8.14418 11.75C7.51658 11.75 7.00781 12.2588 7.00781 12.8864C7.00781 13.514 7.51658 14.0227 8.14418 14.0227Z" fill="#F5F5F5"/>
<path d="M10.6442 16.2757C10.9266 16.2757 11.1555 16.0467 11.1555 15.7643C11.1555 15.4819 10.9266 15.2529 10.6442 15.2529C10.3618 15.2529 10.1328 15.4819 10.1328 15.7643C10.1328 16.0467 10.3618 16.2757 10.6442 16.2757Z" fill="white"/>
<path d="M10.9092 3.18848H8.78795C8.72519 3.18848 8.67432 3.23935 8.67432 3.30211C8.67432 3.36487 8.72519 3.41575 8.78795 3.41575H10.9092C10.9719 3.41575 11.0228 3.36487 11.0228 3.30211C11.0228 3.23935 10.9719 3.18848 10.9092 3.18848Z" fill="#FF6F3F"/>
</g>
</g>
<path d="M26.562 11.164V15H24.966V5.116H28.326C29.4647 5.116 30.3187 5.38667 30.888 5.928C31.4667 6.46933 31.756 7.21133 31.756 8.154C31.756 9.08733 31.462 9.82467 30.874 10.366C30.286 10.898 29.4367 11.164 28.326 11.164H26.562ZM28.158 9.862C29.474 9.862 30.132 9.29267 30.132 8.154C30.132 7.594 29.9733 7.16933 29.656 6.88C29.348 6.58133 28.8487 6.432 28.158 6.432H26.562V9.862H28.158ZM34.7515 8.798C35.0128 8.294 35.3861 7.89733 35.8715 7.608C36.3568 7.30933 36.9168 7.16 37.5515 7.16V8.896H37.0755C36.3755 8.896 35.8108 9.06867 35.3815 9.414C34.9615 9.75 34.7515 10.31 34.7515 11.094V15H33.1555V7.286H34.7515V8.798ZM45.9153 10.772C45.9153 11.0333 45.8966 11.262 45.8593 11.458H39.9233C39.9513 12.2513 40.1706 12.8393 40.5813 13.222C40.9919 13.6047 41.5006 13.796 42.1073 13.796C42.6393 13.796 43.0873 13.6607 43.4513 13.39C43.8246 13.1193 44.0533 12.76 44.1373 12.312H45.8453C45.7426 12.8533 45.5279 13.334 45.2013 13.754C44.8746 14.174 44.4499 14.5053 43.9273 14.748C43.4046 14.9813 42.8213 15.098 42.1773 15.098C41.4306 15.098 40.7679 14.9393 40.1893 14.622C39.6199 14.3047 39.1719 13.8473 38.8453 13.25C38.5186 12.6527 38.3553 11.948 38.3553 11.136C38.3553 10.3333 38.5186 9.63333 38.8453 9.036C39.1719 8.43867 39.6199 7.98133 40.1893 7.664C40.7679 7.34667 41.4306 7.188 42.1773 7.188C42.9333 7.188 43.5913 7.34667 44.1513 7.664C44.7206 7.972 45.1546 8.40133 45.4533 8.952C45.7613 9.49333 45.9153 10.1 45.9153 10.772ZM44.3053 10.73C44.3239 10.226 44.2353 9.806 44.0393 9.47C43.8526 9.12467 43.5913 8.87267 43.2553 8.714C42.9286 8.546 42.5693 8.462 42.1773 8.462C41.5519 8.462 41.0293 8.65333 40.6093 9.036C40.1893 9.41867 39.9606 9.98333 39.9233 10.73H44.3053ZM52.0202 15L50.1302 12.27L48.4782 15H46.7002L49.2482 10.996L46.6722 7.286H48.4782L50.3262 9.946L51.9642 7.286H53.7282L51.1802 11.178L53.8262 15H52.0202ZM58.4628 7.188C59.2094 7.188 59.8814 7.34667 60.4788 7.664C61.0761 7.98133 61.5428 8.43867 61.8787 9.036C62.2148 9.63333 62.3828 10.3333 62.3828 11.136C62.3828 11.948 62.2148 12.6527 61.8787 13.25C61.5428 13.8473 61.0761 14.3047 60.4788 14.622C59.8814 14.9393 59.2094 15.098 58.4628 15.098C57.7161 15.098 57.0441 14.9393 56.4468 14.622C55.8588 14.3047 55.3921 13.8473 55.0468 13.25C54.7108 12.6433 54.5428 11.9387 54.5428 11.136C54.5428 10.3333 54.7108 9.63333 55.0468 9.036C55.3921 8.43867 55.8588 7.98133 56.4468 7.664C57.0441 7.34667 57.7161 7.188 58.4628 7.188ZM58.4628 8.574C58.0521 8.574 57.6741 8.66733 57.3288 8.854C56.9834 9.04067 56.7034 9.33 56.4888 9.722C56.2834 10.1047 56.1808 10.576 56.1808 11.136C56.1808 11.7053 56.2834 12.1813 56.4888 12.564C56.7034 12.9467 56.9834 13.2313 57.3288 13.418C57.6741 13.6047 58.0521 13.698 58.4628 13.698C58.8734 13.698 59.2514 13.6047 59.5968 13.418C59.9421 13.2313 60.2174 12.9467 60.4228 12.564C60.6374 12.1813 60.7448 11.7053 60.7448 11.136C60.7448 10.576 60.6374 10.1047 60.4228 9.722C60.2174 9.33 59.9421 9.04067 59.5968 8.854C59.2514 8.66733 58.8734 8.574 58.4628 8.574Z" fill="#2F3567"/>
<defs>
<clipPath id="clip0_1178_2288">
<rect width="15" height="15" fill="white" transform="translate(2.5 2.5)"/>
</clipPath>
<clipPath id="clip1_1178_2288">
<rect width="9.84848" height="15" fill="white" transform="translate(5 2.5)"/>
</clipPath>
</defs>
</svg>
