<svg width="16" height="16" viewBox="0 0 16 16" fill="none" xmlns="http://www.w3.org/2000/svg">
<g clip-path="url(#clip0_1178_2291)">
<g clip-path="url(#clip1_1178_2291)">
<path fill-rule="evenodd" clip-rule="evenodd" d="M7.05291 6.49266H6.82564C6.64228 6.25214 6.53657 5.96145 6.52261 5.65933V5.05327C6.52261 5.05327 6.63337 4.7813 6.52261 4.14418L6.37109 3.68963V3.23509C6.37109 3.23509 6.39526 3.01721 6.59837 3.00781H6.82564C6.82564 3.00781 7.142 3.01721 7.12867 3.23509V3.68963C7.12867 3.68963 6.99049 4.44577 7.20443 5.12902V5.65933C7.20443 5.65933 7.25852 6.35198 7.05291 6.49266Z" fill="#FF6F3F"/>
<path d="M7.05296 6.49121H6.82568V7.02151H7.05296V6.49121Z" fill="#FF6F3F"/>
<path d="M6.97712 6.94531H6.90137V7.47562H6.97712V6.94531Z" fill="#FF6F3F"/>
<path fill-rule="evenodd" clip-rule="evenodd" d="M9.85613 6.2661H9.62886C9.44549 6.02558 9.33979 5.73489 9.32583 5.43277V4.8267C9.32583 4.8267 9.43659 4.55473 9.32583 3.91761L9.17432 3.46307V3.00852C9.17432 3.00852 9.19848 2.79064 9.40159 2.78125H9.62886C9.62886 2.78125 9.94523 2.79064 9.93189 3.00852V3.46307C9.93189 3.46307 9.79371 4.2192 10.0076 4.90246V5.43277C10.0076 5.43277 10.0617 6.12542 9.85613 6.2661Z" fill="#FF6F3F"/>
<path d="M9.85618 6.26465H9.62891V6.79495H9.85618V6.26465Z" fill="#FF6F3F"/>
<path d="M9.78035 6.71875H9.70459V7.24905H9.78035V6.71875Z" fill="#FF6F3F"/>
<path fill-rule="evenodd" clip-rule="evenodd" d="M8.34078 5.81181H8.11351C8.01307 5.59222 7.95597 5.35531 7.94533 5.11408V4.64135C7.94533 4.64135 8.03169 4.42923 7.94533 3.93226L7.82715 3.57772V3.22317C7.83151 3.17763 7.85159 3.13504 7.88394 3.10269C7.91629 3.07034 7.95888 3.05026 8.00442 3.0459H8.18169C8.18169 3.0459 8.42844 3.05347 8.41806 3.22317V3.57772C8.41806 3.57772 8.31048 4.16726 8.47715 4.70044V5.11423C8.47715 5.11423 8.50116 5.70203 8.34078 5.81181Z" fill="#FF6F3F"/>
<path fill-rule="evenodd" clip-rule="evenodd" d="M8.11377 5.8125H8.34104V6.19129H8.11377V5.8125Z" fill="#FF6F3F"/>
<path d="M8.30038 6.11914H8.24121V6.53111H8.30038V6.11914Z" fill="#FF6F3F"/>
<path fill-rule="evenodd" clip-rule="evenodd" d="M11.5987 4.59883L12.3563 4.2958V3.31095C12.3563 3.31095 12.5337 0.588756 9.17444 0.735195H6.37141L5.31081 0.810953C5.31081 0.810953 3.14664 0.800877 3.1896 2.55338L3.7199 13.311C3.7199 13.311 3.84361 15.3917 5.6896 15.2806C5.6896 15.2806 9.04058 15.3766 11.4472 14.3716C11.4472 14.3716 12.7224 13.8311 12.7351 12.4019L12.6593 9.2958C12.6593 9.2958 12.6921 8.02807 11.4472 8.53823L9.93202 9.06853L9.78051 9.90186C9.78051 9.90186 10.48 9.49777 10.8411 9.44732C10.8411 9.44732 11.98 9.22504 11.9017 10.1291C11.9017 10.1291 12.0595 11.2907 11.2957 11.72C11.2957 11.72 10.4307 12.4397 8.41687 12.6291C8.41687 12.6291 8.44846 12.225 8.1896 12.0231C8.1896 12.0231 8.17066 11.3413 8.94717 11.1897V10.3564C8.94717 10.3564 7.80452 10.2428 8.26535 9.06853L7.65929 8.53823L7.35626 8.7655C7.35626 8.7655 6.87013 8.94224 6.67444 8.61398L6.44717 8.00792H5.61384C5.61384 8.00792 5.56967 8.7402 5.08354 8.7655C4.94829 8.78755 4.80981 8.77854 4.67856 8.73917C4.54731 8.69979 4.42673 8.63108 4.32596 8.53823L4.09869 3.00792C4.09869 3.00792 4.04187 1.82103 5.61384 1.7958H9.55323C9.55323 1.7958 11.3525 1.64429 11.5229 3.31095L11.5987 4.59883Z" fill="#FF6F3F"/>
<path d="M6.14418 12.0227C6.77177 12.0227 7.28054 11.514 7.28054 10.8864C7.28054 10.2588 6.77177 9.75 6.14418 9.75C5.51658 9.75 5.00781 10.2588 5.00781 10.8864C5.00781 11.514 5.51658 12.0227 6.14418 12.0227Z" fill="#F5F5F5"/>
<path d="M8.64418 14.2757C8.92659 14.2757 9.15554 14.0467 9.15554 13.7643C9.15554 13.4819 8.92659 13.2529 8.64418 13.2529C8.36176 13.2529 8.13281 13.4819 8.13281 13.7643C8.13281 14.0467 8.36176 14.2757 8.64418 14.2757Z" fill="white"/>
<path d="M8.90916 1.18848H6.78795C6.72519 1.18848 6.67432 1.23935 6.67432 1.30211C6.67432 1.36487 6.72519 1.41575 6.78795 1.41575H8.90916C8.97192 1.41575 9.0228 1.36487 9.0228 1.30211C9.0228 1.23935 8.97192 1.18848 8.90916 1.18848Z" fill="#FF6F3F"/>
</g>
</g>
<defs>
<clipPath id="clip0_1178_2291">
<rect width="15" height="15" fill="white" transform="translate(0.5 0.5)"/>
</clipPath>
<clipPath id="clip1_1178_2291">
<rect width="9.84848" height="15" fill="white" transform="translate(3 0.5)"/>
</clipPath>
</defs>
</svg>
