<svg width="16" height="17" viewBox="0 0 16 17" fill="none" xmlns="http://www.w3.org/2000/svg">
<g clip-path="url(#clip0_833_2774)">
<path d="M6.00016 14.7865C6.36835 14.7865 6.66683 14.488 6.66683 14.1198C6.66683 13.7516 6.36835 13.4531 6.00016 13.4531C5.63197 13.4531 5.3335 13.7516 5.3335 14.1198C5.3335 14.488 5.63197 14.7865 6.00016 14.7865Z" stroke="#989898" stroke-width="1.2" stroke-linecap="round" stroke-linejoin="round"/>
<path d="M13.3332 14.7865C13.7014 14.7865 13.9998 14.488 13.9998 14.1198C13.9998 13.7516 13.7014 13.4531 13.3332 13.4531C12.965 13.4531 12.6665 13.7516 12.6665 14.1198C12.6665 14.488 12.965 14.7865 13.3332 14.7865Z" stroke="#989898" stroke-width="1.2" stroke-linecap="round" stroke-linejoin="round"/>
<path d="M0.666504 0.789062H3.33317L5.11984 9.71573C5.1808 10.0227 5.34778 10.2984 5.59153 10.4946C5.83529 10.6908 6.1403 10.7951 6.45317 10.7891H12.9332C13.246 10.7951 13.551 10.6908 13.7948 10.4946C14.0386 10.2984 14.2055 10.0227 14.2665 9.71573L15.3332 4.1224H3.99984" stroke="#989898" stroke-width="1.2" stroke-linecap="round" stroke-linejoin="round"/>
</g>
<defs>
<clipPath id="clip0_833_2774">
<rect width="16" height="16" fill="white" transform="translate(0 0.121094)"/>
</clipPath>
</defs>
</svg>
