<svg width="14" height="14" viewBox="0 0 14 14" fill="none" xmlns="http://www.w3.org/2000/svg">
<path d="M6.90297 2.47991L4.56964 0.163245C4.52344 0.116482 4.46842 0.0793539 4.40777 0.0540136C4.34712 0.0286734 4.28204 0.015625 4.2163 0.015625C4.15057 0.015625 4.08549 0.0286734 4.02484 0.0540136C3.96419 0.0793539 3.90917 0.116482 3.86297 0.163245L1.5463 2.49658C1.45798 2.59136 1.4099 2.71673 1.41219 2.84626C1.41447 2.97579 1.46695 3.09938 1.55856 3.19099C1.65016 3.2826 1.77375 3.33508 1.90329 3.33736C2.03282 3.33965 2.15819 3.29156 2.25297 3.20324L3.73297 1.72325V9.81658C3.73297 9.94919 3.78565 10.0764 3.87942 10.1701C3.97319 10.2639 4.10036 10.3166 4.23297 10.3166C4.36558 10.3166 4.49276 10.2639 4.58652 10.1701C4.68029 10.0764 4.73297 9.94919 4.73297 9.81658V1.72325L6.1963 3.18658C6.29005 3.28021 6.41714 3.33281 6.54964 3.33281C6.68214 3.33281 6.80922 3.28021 6.90297 3.18658C6.94973 3.14038 6.98686 3.08536 7.0122 3.02471C7.03754 2.96406 7.05059 2.89898 7.05059 2.83325C7.05059 2.76751 7.03754 2.70243 7.0122 2.64178C6.98686 2.58113 6.94973 2.52611 6.90297 2.47991Z" fill="white"/>
<path d="M6.44743 10.6374L8.78076 12.9541C8.82695 13.0009 8.88197 13.038 8.94263 13.0633C9.00328 13.0887 9.06836 13.1017 9.13409 13.1017C9.19983 13.1017 9.26491 13.0887 9.32556 13.0633C9.38621 13.038 9.44123 13.0009 9.48743 12.9541L11.8041 10.6374C11.8532 10.5917 11.8926 10.5365 11.9199 10.4751C11.9473 10.4138 11.962 10.3476 11.9632 10.2805C11.9643 10.2133 11.952 10.1466 11.9268 10.0844C11.9017 10.0221 11.8643 9.96557 11.8168 9.91809C11.7693 9.87061 11.7127 9.83318 11.6505 9.80803C11.5882 9.78289 11.5215 9.77054 11.4544 9.77172C11.3873 9.7729 11.3211 9.7876 11.2597 9.81493C11.1984 9.84226 11.1432 9.88166 11.0974 9.93078L9.61743 11.3941V3.30078C9.61743 3.16817 9.56475 3.041 9.47098 2.94723C9.37721 2.85346 9.25003 2.80078 9.11743 2.80078C8.98482 2.80078 8.85764 2.85346 8.76387 2.94723C8.6701 3.041 8.61743 3.16817 8.61743 3.30078V11.3941L7.15409 9.93078C7.06034 9.83715 6.93326 9.78455 6.80076 9.78455C6.66826 9.78455 6.54118 9.83715 6.44743 9.93078C6.40066 9.97698 6.36353 10.032 6.33819 10.0926C6.31285 10.1533 6.2998 10.2184 6.2998 10.2841C6.2998 10.3498 6.31285 10.4149 6.33819 10.4756C6.36353 10.5362 6.40066 10.5913 6.44743 10.6374Z" fill="white"/>
</svg>
