<svg width="100" height="22" viewBox="0 0 100 22" fill="none" xmlns="http://www.w3.org/2000/svg">
<rect x="0.5" y="0.5" width="99" height="21" rx="3.5" fill="white"/>
<rect x="0.5" y="0.5" width="99" height="21" rx="3.5" stroke="#00A167"/>
<g clip-path="url(#clip0_662_2911)">
<path d="M17.4168 15.0833C17.4168 15.3928 17.2939 15.6895 17.0751 15.9083C16.8563 16.1271 16.5596 16.25 16.2502 16.25H5.75016C5.44074 16.25 5.144 16.1271 4.9252 15.9083C4.70641 15.6895 4.5835 15.3928 4.5835 15.0833V8.66667C4.5835 8.35725 4.70641 8.0605 4.9252 7.84171C5.144 7.62292 5.44074 7.5 5.75016 7.5H8.0835L9.25016 5.75H12.7502L13.9168 7.5H16.2502C16.5596 7.5 16.8563 7.62292 17.0751 7.84171C17.2939 8.0605 17.4168 8.35725 17.4168 8.66667V15.0833Z" stroke="#00A167" stroke-width="1.3" stroke-linecap="round" stroke-linejoin="round"/>
<path d="M10.9998 13.9167C12.2885 13.9167 13.3332 12.872 13.3332 11.5833C13.3332 10.2947 12.2885 9.25 10.9998 9.25C9.71117 9.25 8.6665 10.2947 8.6665 11.5833C8.6665 12.872 9.71117 13.9167 10.9998 13.9167Z" stroke="#00A167" stroke-width="1.3" stroke-linecap="round" stroke-linejoin="round"/>
</g>
<path d="M30.1426 6.96875V15.5H29.0293V6.96875H30.1426ZM32.8848 6.96875V7.89453H26.293V6.96875H32.8848ZM37.0566 14.416V11.1523C37.0566 10.9023 37.0059 10.6855 36.9043 10.502C36.8066 10.3145 36.6582 10.1699 36.459 10.0684C36.2598 9.9668 36.0137 9.91602 35.7207 9.91602C35.4473 9.91602 35.207 9.96289 35 10.0566C34.7969 10.1504 34.6367 10.2734 34.5195 10.4258C34.4062 10.5781 34.3496 10.7422 34.3496 10.918H33.2656C33.2656 10.6914 33.3242 10.4668 33.4414 10.2441C33.5586 10.0215 33.7266 9.82031 33.9453 9.64062C34.168 9.45703 34.4336 9.3125 34.7422 9.20703C35.0547 9.09766 35.4023 9.04297 35.7852 9.04297C36.2461 9.04297 36.6523 9.12109 37.0039 9.27734C37.3594 9.43359 37.6367 9.66992 37.8359 9.98633C38.0391 10.2988 38.1406 10.6914 38.1406 11.1641V14.1172C38.1406 14.3281 38.1582 14.5527 38.1934 14.791C38.2324 15.0293 38.2891 15.2344 38.3633 15.4062V15.5H37.2324C37.1777 15.375 37.1348 15.209 37.1035 15.002C37.0723 14.791 37.0566 14.5957 37.0566 14.416ZM37.2441 11.6562L37.2559 12.418H36.1602C35.8516 12.418 35.5762 12.4434 35.334 12.4941C35.0918 12.541 34.8887 12.6133 34.7246 12.7109C34.5605 12.8086 34.4355 12.9316 34.3496 13.0801C34.2637 13.2246 34.2207 13.3945 34.2207 13.5898C34.2207 13.7891 34.2656 13.9707 34.3555 14.1348C34.4453 14.2988 34.5801 14.4297 34.7598 14.5273C34.9434 14.6211 35.168 14.668 35.4336 14.668C35.7656 14.668 36.0586 14.5977 36.3125 14.457C36.5664 14.3164 36.7676 14.1445 36.916 13.9414C37.0684 13.7383 37.1504 13.541 37.1621 13.3496L37.625 13.8711C37.5977 14.0352 37.5234 14.2168 37.4023 14.416C37.2812 14.6152 37.1191 14.8066 36.916 14.9902C36.7168 15.1699 36.4785 15.3203 36.2012 15.4414C35.9277 15.5586 35.6191 15.6172 35.2754 15.6172C34.8457 15.6172 34.4688 15.5332 34.1445 15.3652C33.8242 15.1973 33.5742 14.9727 33.3945 14.6914C33.2188 14.4062 33.1309 14.0879 33.1309 13.7363C33.1309 13.3965 33.1973 13.0977 33.3301 12.8398C33.4629 12.5781 33.6543 12.3613 33.9043 12.1895C34.1543 12.0137 34.4551 11.8809 34.8066 11.791C35.1582 11.7012 35.5508 11.6562 35.9844 11.6562H37.2441ZM40.9355 6.5V15.5H39.8457V6.5H40.9355ZM44.8086 9.16016L42.043 12.1191L40.4961 13.7246L40.4082 12.5703L41.5156 11.2461L43.4844 9.16016H44.8086ZM43.8184 15.5L41.5566 12.4766L42.1191 11.5098L45.0957 15.5H43.8184ZM48.4414 15.6172C48 15.6172 47.5996 15.543 47.2402 15.3945C46.8848 15.2422 46.5781 15.0293 46.3203 14.7559C46.0664 14.4824 45.8711 14.1582 45.7344 13.7832C45.5977 13.4082 45.5293 12.998 45.5293 12.5527V12.3066C45.5293 11.791 45.6055 11.332 45.7578 10.9297C45.9102 10.5234 46.1172 10.1797 46.3789 9.89844C46.6406 9.61719 46.9375 9.4043 47.2695 9.25977C47.6016 9.11523 47.9453 9.04297 48.3008 9.04297C48.7539 9.04297 49.1445 9.12109 49.4727 9.27734C49.8047 9.43359 50.0762 9.65234 50.2871 9.93359C50.498 10.2109 50.6543 10.5391 50.7559 10.918C50.8574 11.293 50.9082 11.7031 50.9082 12.1484V12.6348H46.1738V11.75H49.8242V11.668C49.8086 11.3867 49.75 11.1133 49.6484 10.8477C49.5508 10.582 49.3945 10.3633 49.1797 10.1914C48.9648 10.0195 48.6719 9.93359 48.3008 9.93359C48.0547 9.93359 47.8281 9.98633 47.6211 10.0918C47.4141 10.1934 47.2363 10.3457 47.0879 10.5488C46.9395 10.752 46.8242 11 46.7422 11.293C46.6602 11.5859 46.6191 11.9238 46.6191 12.3066V12.5527C46.6191 12.8535 46.6602 13.1367 46.7422 13.4023C46.8281 13.6641 46.9512 13.8945 47.1113 14.0938C47.2754 14.293 47.4727 14.4492 47.7031 14.5625C47.9375 14.6758 48.2031 14.7324 48.5 14.7324C48.8828 14.7324 49.207 14.6543 49.4727 14.498C49.7383 14.3418 49.9707 14.1328 50.1699 13.8711L50.8262 14.3926C50.6895 14.5996 50.5156 14.7969 50.3047 14.9844C50.0938 15.1719 49.834 15.3242 49.5254 15.4414C49.2207 15.5586 48.8594 15.6172 48.4414 15.6172ZM58.8887 14.416V11.1523C58.8887 10.9023 58.8379 10.6855 58.7363 10.502C58.6387 10.3145 58.4902 10.1699 58.291 10.0684C58.0918 9.9668 57.8457 9.91602 57.5527 9.91602C57.2793 9.91602 57.0391 9.96289 56.832 10.0566C56.6289 10.1504 56.4688 10.2734 56.3516 10.4258C56.2383 10.5781 56.1816 10.7422 56.1816 10.918H55.0977C55.0977 10.6914 55.1562 10.4668 55.2734 10.2441C55.3906 10.0215 55.5586 9.82031 55.7773 9.64062C56 9.45703 56.2656 9.3125 56.5742 9.20703C56.8867 9.09766 57.2344 9.04297 57.6172 9.04297C58.0781 9.04297 58.4844 9.12109 58.8359 9.27734C59.1914 9.43359 59.4688 9.66992 59.668 9.98633C59.8711 10.2988 59.9727 10.6914 59.9727 11.1641V14.1172C59.9727 14.3281 59.9902 14.5527 60.0254 14.791C60.0645 15.0293 60.1211 15.2344 60.1953 15.4062V15.5H59.0645C59.0098 15.375 58.9668 15.209 58.9355 15.002C58.9043 14.791 58.8887 14.5957 58.8887 14.416ZM59.0762 11.6562L59.0879 12.418H57.9922C57.6836 12.418 57.4082 12.4434 57.166 12.4941C56.9238 12.541 56.7207 12.6133 56.5566 12.7109C56.3926 12.8086 56.2676 12.9316 56.1816 13.0801C56.0957 13.2246 56.0527 13.3945 56.0527 13.5898C56.0527 13.7891 56.0977 13.9707 56.1875 14.1348C56.2773 14.2988 56.4121 14.4297 56.5918 14.5273C56.7754 14.6211 57 14.668 57.2656 14.668C57.5977 14.668 57.8906 14.5977 58.1445 14.457C58.3984 14.3164 58.5996 14.1445 58.748 13.9414C58.9004 13.7383 58.9824 13.541 58.9941 13.3496L59.457 13.8711C59.4297 14.0352 59.3555 14.2168 59.2344 14.416C59.1133 14.6152 58.9512 14.8066 58.748 14.9902C58.5488 15.1699 58.3105 15.3203 58.0332 15.4414C57.7598 15.5586 57.4512 15.6172 57.1074 15.6172C56.6777 15.6172 56.3008 15.5332 55.9766 15.3652C55.6562 15.1973 55.4062 14.9727 55.2266 14.6914C55.0508 14.4062 54.9629 14.0879 54.9629 13.7363C54.9629 13.3965 55.0293 13.0977 55.1621 12.8398C55.2949 12.5781 55.4863 12.3613 55.7363 12.1895C55.9863 12.0137 56.2871 11.8809 56.6387 11.791C56.9902 11.7012 57.3828 11.6562 57.8164 11.6562H59.0762ZM67.9648 12.1543H65.6855V11.2344H67.9648C68.4062 11.2344 68.7637 11.1641 69.0371 11.0234C69.3105 10.8828 69.5098 10.6875 69.6348 10.4375C69.7637 10.1875 69.8281 9.90234 69.8281 9.58203C69.8281 9.28906 69.7637 9.01367 69.6348 8.75586C69.5098 8.49805 69.3105 8.29102 69.0371 8.13477C68.7637 7.97461 68.4062 7.89453 67.9648 7.89453H65.9492V15.5H64.8184V6.96875H67.9648C68.6094 6.96875 69.1543 7.08008 69.5996 7.30273C70.0449 7.52539 70.3828 7.83398 70.6133 8.22852C70.8438 8.61914 70.959 9.06641 70.959 9.57031C70.959 10.1172 70.8438 10.584 70.6133 10.9707C70.3828 11.3574 70.0449 11.6523 69.5996 11.8555C69.1543 12.0547 68.6094 12.1543 67.9648 12.1543ZM73.3086 6.5V15.5H72.2246V6.5H73.3086ZM73.0508 12.0898L72.5996 12.0723C72.6035 11.6387 72.668 11.2383 72.793 10.8711C72.918 10.5 73.0938 10.1777 73.3203 9.9043C73.5469 9.63086 73.8164 9.41992 74.1289 9.27148C74.4453 9.11914 74.7949 9.04297 75.1777 9.04297C75.4902 9.04297 75.7715 9.08594 76.0215 9.17188C76.2715 9.25391 76.4844 9.38672 76.6602 9.57031C76.8398 9.75391 76.9766 9.99219 77.0703 10.2852C77.1641 10.5742 77.2109 10.9277 77.2109 11.3457V15.5H76.1211V11.334C76.1211 11.002 76.0723 10.7363 75.9746 10.5371C75.877 10.334 75.7344 10.1875 75.5469 10.0977C75.3594 10.0039 75.1289 9.95703 74.8555 9.95703C74.5859 9.95703 74.3398 10.0137 74.1172 10.127C73.8984 10.2402 73.709 10.3965 73.5488 10.5957C73.3926 10.7949 73.2695 11.0234 73.1797 11.2812C73.0938 11.5352 73.0508 11.8047 73.0508 12.0898ZM78.5469 12.4004V12.2656C78.5469 11.8086 78.6133 11.3848 78.7461 10.9941C78.8789 10.5996 79.0703 10.2578 79.3203 9.96875C79.5703 9.67578 79.873 9.44922 80.2285 9.28906C80.584 9.125 80.9824 9.04297 81.4238 9.04297C81.8691 9.04297 82.2695 9.125 82.625 9.28906C82.9844 9.44922 83.2891 9.67578 83.5391 9.96875C83.793 10.2578 83.9863 10.5996 84.1191 10.9941C84.252 11.3848 84.3184 11.8086 84.3184 12.2656V12.4004C84.3184 12.8574 84.252 13.2812 84.1191 13.6719C83.9863 14.0625 83.793 14.4043 83.5391 14.6973C83.2891 14.9863 82.9863 15.2129 82.6309 15.377C82.2793 15.5371 81.8809 15.6172 81.4355 15.6172C80.9902 15.6172 80.5898 15.5371 80.2344 15.377C79.8789 15.2129 79.5742 14.9863 79.3203 14.6973C79.0703 14.4043 78.8789 14.0625 78.7461 13.6719C78.6133 13.2812 78.5469 12.8574 78.5469 12.4004ZM79.6309 12.2656V12.4004C79.6309 12.7168 79.668 13.0156 79.7422 13.2969C79.8164 13.5742 79.9277 13.8203 80.0762 14.0352C80.2285 14.25 80.418 14.4199 80.6445 14.5449C80.8711 14.666 81.1348 14.7266 81.4355 14.7266C81.7324 14.7266 81.9922 14.666 82.2148 14.5449C82.4414 14.4199 82.6289 14.25 82.7773 14.0352C82.9258 13.8203 83.0371 13.5742 83.1113 13.2969C83.1895 13.0156 83.2285 12.7168 83.2285 12.4004V12.2656C83.2285 11.9531 83.1895 11.6582 83.1113 11.3809C83.0371 11.0996 82.9238 10.8516 82.7715 10.6367C82.623 10.418 82.4355 10.2461 82.209 10.1211C81.9863 9.99609 81.7246 9.93359 81.4238 9.93359C81.127 9.93359 80.8652 9.99609 80.6387 10.1211C80.416 10.2461 80.2285 10.418 80.0762 10.6367C79.9277 10.8516 79.8164 11.0996 79.7422 11.3809C79.668 11.6582 79.6309 11.9531 79.6309 12.2656ZM88.332 9.16016V9.99219H84.9043V9.16016H88.332ZM86.0645 7.61914H87.1484V13.9297C87.1484 14.1445 87.1816 14.3066 87.248 14.416C87.3145 14.5254 87.4004 14.5977 87.5059 14.6328C87.6113 14.668 87.7246 14.6855 87.8457 14.6855C87.9355 14.6855 88.0293 14.6777 88.127 14.6621C88.2285 14.6426 88.3047 14.627 88.3555 14.6152L88.3613 15.5C88.2754 15.5273 88.1621 15.5527 88.0215 15.5762C87.8848 15.6035 87.7188 15.6172 87.5234 15.6172C87.2578 15.6172 87.0137 15.5645 86.791 15.459C86.5684 15.3535 86.3906 15.1777 86.2578 14.9316C86.1289 14.6816 86.0645 14.3457 86.0645 13.9238V7.61914ZM89.1992 12.4004V12.2656C89.1992 11.8086 89.2656 11.3848 89.3984 10.9941C89.5312 10.5996 89.7227 10.2578 89.9727 9.96875C90.2227 9.67578 90.5254 9.44922 90.8809 9.28906C91.2363 9.125 91.6348 9.04297 92.0762 9.04297C92.5215 9.04297 92.9219 9.125 93.2773 9.28906C93.6367 9.44922 93.9414 9.67578 94.1914 9.96875C94.4453 10.2578 94.6387 10.5996 94.7715 10.9941C94.9043 11.3848 94.9707 11.8086 94.9707 12.2656V12.4004C94.9707 12.8574 94.9043 13.2812 94.7715 13.6719C94.6387 14.0625 94.4453 14.4043 94.1914 14.6973C93.9414 14.9863 93.6387 15.2129 93.2832 15.377C92.9316 15.5371 92.5332 15.6172 92.0879 15.6172C91.6426 15.6172 91.2422 15.5371 90.8867 15.377C90.5312 15.2129 90.2266 14.9863 89.9727 14.6973C89.7227 14.4043 89.5312 14.0625 89.3984 13.6719C89.2656 13.2812 89.1992 12.8574 89.1992 12.4004ZM90.2832 12.2656V12.4004C90.2832 12.7168 90.3203 13.0156 90.3945 13.2969C90.4688 13.5742 90.5801 13.8203 90.7285 14.0352C90.8809 14.25 91.0703 14.4199 91.2969 14.5449C91.5234 14.666 91.7871 14.7266 92.0879 14.7266C92.3848 14.7266 92.6445 14.666 92.8672 14.5449C93.0938 14.4199 93.2812 14.25 93.4297 14.0352C93.5781 13.8203 93.6895 13.5742 93.7637 13.2969C93.8418 13.0156 93.8809 12.7168 93.8809 12.4004V12.2656C93.8809 11.9531 93.8418 11.6582 93.7637 11.3809C93.6895 11.0996 93.5762 10.8516 93.4238 10.6367C93.2754 10.418 93.0879 10.2461 92.8613 10.1211C92.6387 9.99609 92.377 9.93359 92.0762 9.93359C91.7793 9.93359 91.5176 9.99609 91.291 10.1211C91.0684 10.2461 90.8809 10.418 90.7285 10.6367C90.5801 10.8516 90.4688 11.0996 90.3945 11.3809C90.3203 11.6582 90.2832 11.9531 90.2832 12.2656Z" fill="#00A167"/>
<defs>
<clipPath id="clip0_662_2911">
<rect width="14" height="14" fill="white" transform="translate(4 4)"/>
</clipPath>
</defs>
</svg>
