<svg width="111" height="22" viewBox="0 0 111 22" fill="none" xmlns="http://www.w3.org/2000/svg">
<rect width="111" height="22" rx="4" fill="#00A167"/>
<path d="M10.3335 12.167V14.5003C10.3335 14.8097 10.4564 15.1065 10.6752 15.3253C10.894 15.5441 11.1907 15.667 11.5002 15.667H18.5002C18.8096 15.667 19.1063 15.5441 19.3251 15.3253C19.5439 15.1065 19.6668 14.8097 19.6668 14.5003V12.167" stroke="white" stroke-width="1.3" stroke-linecap="round" stroke-linejoin="round"/>
<path d="M17.3332 7.50033L14.9998 5.16699L12.6665 7.50033" stroke="white" stroke-width="1.3" stroke-linecap="round" stroke-linejoin="round"/>
<path d="M15 5.16699V12.7503" stroke="white" stroke-width="1.3" stroke-linecap="round" stroke-linejoin="round"/>
<path d="M35.8711 6.96875H36.9961V12.7402C36.9961 13.3809 36.8535 13.9141 36.5684 14.3398C36.2832 14.7656 35.9043 15.0859 35.4316 15.3008C34.9629 15.5117 34.4531 15.6172 33.9023 15.6172C33.3242 15.6172 32.8008 15.5117 32.332 15.3008C31.8672 15.0859 31.498 14.7656 31.2246 14.3398C30.9551 13.9141 30.8203 13.3809 30.8203 12.7402V6.96875H31.9395V12.7402C31.9395 13.1855 32.0215 13.5527 32.1855 13.8418C32.3496 14.1309 32.5781 14.3457 32.8711 14.4863C33.168 14.627 33.5117 14.6973 33.9023 14.6973C34.2969 14.6973 34.6406 14.627 34.9336 14.4863C35.2305 14.3457 35.4609 14.1309 35.625 13.8418C35.7891 13.5527 35.8711 13.1855 35.8711 12.7402V6.96875ZM39.6914 10.3789V17.9375H38.6016V9.16016H39.5977L39.6914 10.3789ZM43.9629 12.2773V12.4004C43.9629 12.8613 43.9082 13.2891 43.7988 13.6836C43.6895 14.0742 43.5293 14.4141 43.3184 14.7031C43.1113 14.9922 42.8555 15.2168 42.5508 15.377C42.2461 15.5371 41.8965 15.6172 41.502 15.6172C41.0996 15.6172 40.7441 15.5508 40.4355 15.418C40.127 15.2852 39.8652 15.0918 39.6504 14.8379C39.4355 14.584 39.2637 14.2793 39.1348 13.9238C39.0098 13.5684 38.9238 13.168 38.877 12.7227V12.0664C38.9238 11.5977 39.0117 11.1777 39.1406 10.8066C39.2695 10.4355 39.4395 10.1191 39.6504 9.85742C39.8652 9.5918 40.125 9.39062 40.4297 9.25391C40.7344 9.11328 41.0859 9.04297 41.4844 9.04297C41.8828 9.04297 42.2363 9.12109 42.5449 9.27734C42.8535 9.42969 43.1133 9.64844 43.3242 9.93359C43.5352 10.2188 43.6934 10.5605 43.7988 10.959C43.9082 11.3535 43.9629 11.793 43.9629 12.2773ZM42.873 12.4004V12.2773C42.873 11.9609 42.8398 11.6641 42.7734 11.3867C42.707 11.1055 42.6035 10.8594 42.4629 10.6484C42.3262 10.4336 42.1504 10.2656 41.9355 10.1445C41.7207 10.0195 41.4648 9.95703 41.168 9.95703C40.8945 9.95703 40.6562 10.0039 40.4531 10.0977C40.2539 10.1914 40.084 10.3184 39.9434 10.4785C39.8027 10.6348 39.6875 10.8145 39.5977 11.0176C39.5117 11.2168 39.4473 11.4238 39.4043 11.6387V13.1562C39.4824 13.4297 39.5918 13.6875 39.7324 13.9297C39.873 14.168 40.0605 14.3613 40.2949 14.5098C40.5293 14.6543 40.8242 14.7266 41.1797 14.7266C41.4727 14.7266 41.7246 14.666 41.9355 14.5449C42.1504 14.4199 42.3262 14.25 42.4629 14.0352C42.6035 13.8203 42.707 13.5742 42.7734 13.2969C42.8398 13.0156 42.873 12.7168 42.873 12.4004ZM46.5234 6.5V15.5H45.4336V6.5H46.5234ZM47.9766 12.4004V12.2656C47.9766 11.8086 48.043 11.3848 48.1758 10.9941C48.3086 10.5996 48.5 10.2578 48.75 9.96875C49 9.67578 49.3027 9.44922 49.6582 9.28906C50.0137 9.125 50.4121 9.04297 50.8535 9.04297C51.2988 9.04297 51.6992 9.125 52.0547 9.28906C52.4141 9.44922 52.7188 9.67578 52.9688 9.96875C53.2227 10.2578 53.416 10.5996 53.5488 10.9941C53.6816 11.3848 53.748 11.8086 53.748 12.2656V12.4004C53.748 12.8574 53.6816 13.2812 53.5488 13.6719C53.416 14.0625 53.2227 14.4043 52.9688 14.6973C52.7188 14.9863 52.416 15.2129 52.0605 15.377C51.709 15.5371 51.3105 15.6172 50.8652 15.6172C50.4199 15.6172 50.0195 15.5371 49.6641 15.377C49.3086 15.2129 49.0039 14.9863 48.75 14.6973C48.5 14.4043 48.3086 14.0625 48.1758 13.6719C48.043 13.2812 47.9766 12.8574 47.9766 12.4004ZM49.0605 12.2656V12.4004C49.0605 12.7168 49.0977 13.0156 49.1719 13.2969C49.2461 13.5742 49.3574 13.8203 49.5059 14.0352C49.6582 14.25 49.8477 14.4199 50.0742 14.5449C50.3008 14.666 50.5645 14.7266 50.8652 14.7266C51.1621 14.7266 51.4219 14.666 51.6445 14.5449C51.8711 14.4199 52.0586 14.25 52.207 14.0352C52.3555 13.8203 52.4668 13.5742 52.541 13.2969C52.6191 13.0156 52.6582 12.7168 52.6582 12.4004V12.2656C52.6582 11.9531 52.6191 11.6582 52.541 11.3809C52.4668 11.0996 52.3535 10.8516 52.2012 10.6367C52.0527 10.418 51.8652 10.2461 51.6387 10.1211C51.416 9.99609 51.1543 9.93359 50.8535 9.93359C50.5566 9.93359 50.2949 9.99609 50.0684 10.1211C49.8457 10.2461 49.6582 10.418 49.5059 10.6367C49.3574 10.8516 49.2461 11.0996 49.1719 11.3809C49.0977 11.6582 49.0605 11.9531 49.0605 12.2656ZM58.8457 14.416V11.1523C58.8457 10.9023 58.7949 10.6855 58.6934 10.502C58.5957 10.3145 58.4473 10.1699 58.248 10.0684C58.0488 9.9668 57.8027 9.91602 57.5098 9.91602C57.2363 9.91602 56.9961 9.96289 56.7891 10.0566C56.5859 10.1504 56.4258 10.2734 56.3086 10.4258C56.1953 10.5781 56.1387 10.7422 56.1387 10.918H55.0547C55.0547 10.6914 55.1133 10.4668 55.2305 10.2441C55.3477 10.0215 55.5156 9.82031 55.7344 9.64062C55.957 9.45703 56.2227 9.3125 56.5312 9.20703C56.8438 9.09766 57.1914 9.04297 57.5742 9.04297C58.0352 9.04297 58.4414 9.12109 58.793 9.27734C59.1484 9.43359 59.4258 9.66992 59.625 9.98633C59.8281 10.2988 59.9297 10.6914 59.9297 11.1641V14.1172C59.9297 14.3281 59.9473 14.5527 59.9824 14.791C60.0215 15.0293 60.0781 15.2344 60.1523 15.4062V15.5H59.0215C58.9668 15.375 58.9238 15.209 58.8926 15.002C58.8613 14.791 58.8457 14.5957 58.8457 14.416ZM59.0332 11.6562L59.0449 12.418H57.9492C57.6406 12.418 57.3652 12.4434 57.123 12.4941C56.8809 12.541 56.6777 12.6133 56.5137 12.7109C56.3496 12.8086 56.2246 12.9316 56.1387 13.0801C56.0527 13.2246 56.0098 13.3945 56.0098 13.5898C56.0098 13.7891 56.0547 13.9707 56.1445 14.1348C56.2344 14.2988 56.3691 14.4297 56.5488 14.5273C56.7324 14.6211 56.957 14.668 57.2227 14.668C57.5547 14.668 57.8477 14.5977 58.1016 14.457C58.3555 14.3164 58.5566 14.1445 58.7051 13.9414C58.8574 13.7383 58.9395 13.541 58.9512 13.3496L59.4141 13.8711C59.3867 14.0352 59.3125 14.2168 59.1914 14.416C59.0703 14.6152 58.9082 14.8066 58.7051 14.9902C58.5059 15.1699 58.2676 15.3203 57.9902 15.4414C57.7168 15.5586 57.4082 15.6172 57.0645 15.6172C56.6348 15.6172 56.2578 15.5332 55.9336 15.3652C55.6133 15.1973 55.3633 14.9727 55.1836 14.6914C55.0078 14.4062 54.9199 14.0879 54.9199 13.7363C54.9199 13.3965 54.9863 13.0977 55.1191 12.8398C55.252 12.5781 55.4434 12.3613 55.6934 12.1895C55.9434 12.0137 56.2441 11.8809 56.5957 11.791C56.9473 11.7012 57.3398 11.6562 57.7734 11.6562H59.0332ZM65.6309 14.2695V6.5H66.7207V15.5H65.7246L65.6309 14.2695ZM61.3652 12.4004V12.2773C61.3652 11.793 61.4238 11.3535 61.541 10.959C61.6621 10.5605 61.832 10.2188 62.0508 9.93359C62.2734 9.64844 62.5371 9.42969 62.8418 9.27734C63.1504 9.12109 63.4941 9.04297 63.873 9.04297C64.2715 9.04297 64.6191 9.11328 64.916 9.25391C65.2168 9.39062 65.4707 9.5918 65.6777 9.85742C65.8887 10.1191 66.0547 10.4355 66.1758 10.8066C66.2969 11.1777 66.3809 11.5977 66.4277 12.0664V12.6055C66.3848 13.0703 66.3008 13.4883 66.1758 13.8594C66.0547 14.2305 65.8887 14.5469 65.6777 14.8086C65.4707 15.0703 65.2168 15.2715 64.916 15.4121C64.6152 15.5488 64.2637 15.6172 63.8613 15.6172C63.4902 15.6172 63.1504 15.5371 62.8418 15.377C62.5371 15.2168 62.2734 14.9922 62.0508 14.7031C61.832 14.4141 61.6621 14.0742 61.541 13.6836C61.4238 13.2891 61.3652 12.8613 61.3652 12.4004ZM62.4551 12.2773V12.4004C62.4551 12.7168 62.4863 13.0137 62.5488 13.291C62.6152 13.5684 62.7168 13.8125 62.8535 14.0234C62.9902 14.2344 63.1641 14.4004 63.375 14.5215C63.5859 14.6387 63.8379 14.6973 64.1309 14.6973C64.4902 14.6973 64.7852 14.6211 65.0156 14.4688C65.25 14.3164 65.4375 14.1152 65.5781 13.8652C65.7188 13.6152 65.8281 13.3438 65.9062 13.0508V11.6387C65.8594 11.4238 65.791 11.2168 65.7012 11.0176C65.6152 10.8145 65.502 10.6348 65.3613 10.4785C65.2246 10.3184 65.0547 10.1914 64.8516 10.0977C64.6523 10.0039 64.416 9.95703 64.1426 9.95703C63.8457 9.95703 63.5898 10.0195 63.375 10.1445C63.1641 10.2656 62.9902 10.4336 62.8535 10.6484C62.7168 10.8594 62.6152 11.1055 62.5488 11.3867C62.4863 11.6641 62.4551 11.9609 62.4551 12.2773ZM74.6953 12.1543H72.416V11.2344H74.6953C75.1367 11.2344 75.4941 11.1641 75.7676 11.0234C76.041 10.8828 76.2402 10.6875 76.3652 10.4375C76.4941 10.1875 76.5586 9.90234 76.5586 9.58203C76.5586 9.28906 76.4941 9.01367 76.3652 8.75586C76.2402 8.49805 76.041 8.29102 75.7676 8.13477C75.4941 7.97461 75.1367 7.89453 74.6953 7.89453H72.6797V15.5H71.5488V6.96875H74.6953C75.3398 6.96875 75.8848 7.08008 76.3301 7.30273C76.7754 7.52539 77.1133 7.83398 77.3438 8.22852C77.5742 8.61914 77.6895 9.06641 77.6895 9.57031C77.6895 10.1172 77.5742 10.584 77.3438 10.9707C77.1133 11.3574 76.7754 11.6523 76.3301 11.8555C75.8848 12.0547 75.3398 12.1543 74.6953 12.1543ZM80.0391 6.5V15.5H78.9551V6.5H80.0391ZM79.7812 12.0898L79.3301 12.0723C79.334 11.6387 79.3984 11.2383 79.5234 10.8711C79.6484 10.5 79.8242 10.1777 80.0508 9.9043C80.2773 9.63086 80.5469 9.41992 80.8594 9.27148C81.1758 9.11914 81.5254 9.04297 81.9082 9.04297C82.2207 9.04297 82.502 9.08594 82.752 9.17188C83.002 9.25391 83.2148 9.38672 83.3906 9.57031C83.5703 9.75391 83.707 9.99219 83.8008 10.2852C83.8945 10.5742 83.9414 10.9277 83.9414 11.3457V15.5H82.8516V11.334C82.8516 11.002 82.8027 10.7363 82.7051 10.5371C82.6074 10.334 82.4648 10.1875 82.2773 10.0977C82.0898 10.0039 81.8594 9.95703 81.5859 9.95703C81.3164 9.95703 81.0703 10.0137 80.8477 10.127C80.6289 10.2402 80.4395 10.3965 80.2793 10.5957C80.123 10.7949 80 11.0234 79.9102 11.2812C79.8242 11.5352 79.7812 11.8047 79.7812 12.0898ZM85.2773 12.4004V12.2656C85.2773 11.8086 85.3438 11.3848 85.4766 10.9941C85.6094 10.5996 85.8008 10.2578 86.0508 9.96875C86.3008 9.67578 86.6035 9.44922 86.959 9.28906C87.3145 9.125 87.7129 9.04297 88.1543 9.04297C88.5996 9.04297 89 9.125 89.3555 9.28906C89.7148 9.44922 90.0195 9.67578 90.2695 9.96875C90.5234 10.2578 90.7168 10.5996 90.8496 10.9941C90.9824 11.3848 91.0488 11.8086 91.0488 12.2656V12.4004C91.0488 12.8574 90.9824 13.2812 90.8496 13.6719C90.7168 14.0625 90.5234 14.4043 90.2695 14.6973C90.0195 14.9863 89.7168 15.2129 89.3613 15.377C89.0098 15.5371 88.6113 15.6172 88.166 15.6172C87.7207 15.6172 87.3203 15.5371 86.9648 15.377C86.6094 15.2129 86.3047 14.9863 86.0508 14.6973C85.8008 14.4043 85.6094 14.0625 85.4766 13.6719C85.3438 13.2812 85.2773 12.8574 85.2773 12.4004ZM86.3613 12.2656V12.4004C86.3613 12.7168 86.3984 13.0156 86.4727 13.2969C86.5469 13.5742 86.6582 13.8203 86.8066 14.0352C86.959 14.25 87.1484 14.4199 87.375 14.5449C87.6016 14.666 87.8652 14.7266 88.166 14.7266C88.4629 14.7266 88.7227 14.666 88.9453 14.5449C89.1719 14.4199 89.3594 14.25 89.5078 14.0352C89.6562 13.8203 89.7676 13.5742 89.8418 13.2969C89.9199 13.0156 89.959 12.7168 89.959 12.4004V12.2656C89.959 11.9531 89.9199 11.6582 89.8418 11.3809C89.7676 11.0996 89.6543 10.8516 89.502 10.6367C89.3535 10.418 89.166 10.2461 88.9395 10.1211C88.7168 9.99609 88.4551 9.93359 88.1543 9.93359C87.8574 9.93359 87.5957 9.99609 87.3691 10.1211C87.1465 10.2461 86.959 10.418 86.8066 10.6367C86.6582 10.8516 86.5469 11.0996 86.4727 11.3809C86.3984 11.6582 86.3613 11.9531 86.3613 12.2656ZM95.0625 9.16016V9.99219H91.6348V9.16016H95.0625ZM92.7949 7.61914H93.8789V13.9297C93.8789 14.1445 93.9121 14.3066 93.9785 14.416C94.0449 14.5254 94.1309 14.5977 94.2363 14.6328C94.3418 14.668 94.4551 14.6855 94.5762 14.6855C94.666 14.6855 94.7598 14.6777 94.8574 14.6621C94.959 14.6426 95.0352 14.627 95.0859 14.6152L95.0918 15.5C95.0059 15.5273 94.8926 15.5527 94.752 15.5762C94.6152 15.6035 94.4492 15.6172 94.2539 15.6172C93.9883 15.6172 93.7441 15.5645 93.5215 15.459C93.2988 15.3535 93.1211 15.1777 92.9883 14.9316C92.8594 14.6816 92.7949 14.3457 92.7949 13.9238V7.61914ZM95.9297 12.4004V12.2656C95.9297 11.8086 95.9961 11.3848 96.1289 10.9941C96.2617 10.5996 96.4531 10.2578 96.7031 9.96875C96.9531 9.67578 97.2559 9.44922 97.6113 9.28906C97.9668 9.125 98.3652 9.04297 98.8066 9.04297C99.252 9.04297 99.6523 9.125 100.008 9.28906C100.367 9.44922 100.672 9.67578 100.922 9.96875C101.176 10.2578 101.369 10.5996 101.502 10.9941C101.635 11.3848 101.701 11.8086 101.701 12.2656V12.4004C101.701 12.8574 101.635 13.2812 101.502 13.6719C101.369 14.0625 101.176 14.4043 100.922 14.6973C100.672 14.9863 100.369 15.2129 100.014 15.377C99.6621 15.5371 99.2637 15.6172 98.8184 15.6172C98.373 15.6172 97.9727 15.5371 97.6172 15.377C97.2617 15.2129 96.957 14.9863 96.7031 14.6973C96.4531 14.4043 96.2617 14.0625 96.1289 13.6719C95.9961 13.2812 95.9297 12.8574 95.9297 12.4004ZM97.0137 12.2656V12.4004C97.0137 12.7168 97.0508 13.0156 97.125 13.2969C97.1992 13.5742 97.3105 13.8203 97.459 14.0352C97.6113 14.25 97.8008 14.4199 98.0273 14.5449C98.2539 14.666 98.5176 14.7266 98.8184 14.7266C99.1152 14.7266 99.375 14.666 99.5977 14.5449C99.8242 14.4199 100.012 14.25 100.16 14.0352C100.309 13.8203 100.42 13.5742 100.494 13.2969C100.572 13.0156 100.611 12.7168 100.611 12.4004V12.2656C100.611 11.9531 100.572 11.6582 100.494 11.3809C100.42 11.0996 100.307 10.8516 100.154 10.6367C100.006 10.418 99.8184 10.2461 99.5918 10.1211C99.3691 9.99609 99.1074 9.93359 98.8066 9.93359C98.5098 9.93359 98.248 9.99609 98.0215 10.1211C97.7988 10.2461 97.6113 10.418 97.459 10.6367C97.3105 10.8516 97.1992 11.0996 97.125 11.3809C97.0508 11.6582 97.0137 11.9531 97.0137 12.2656Z" fill="white"/>
</svg>
