<svg width="87" height="18" viewBox="0 0 87 18" fill="none" xmlns="http://www.w3.org/2000/svg">
<path d="M1.68 4.528L4.116 11.536L6.564 4.528H8.052L4.992 13H3.24L0.192 4.528H1.68ZM8.87428 4.468C8.87428 4.236 8.95428 4.044 9.11428 3.892C9.27428 3.74 9.48628 3.664 9.75028 3.664C10.0143 3.664 10.2263 3.74 10.3863 3.892C10.5543 4.044 10.6383 4.236 10.6383 4.468C10.6383 4.7 10.5543 4.888 10.3863 5.032C10.2263 5.176 10.0143 5.248 9.75028 5.248C9.48628 5.248 9.27428 5.176 9.11428 5.032C8.95428 4.888 8.87428 4.7 8.87428 4.468ZM10.4343 6.388V13H9.06628V6.388H10.4343ZM18.2337 9.376C18.2337 9.6 18.2177 9.796 18.1857 9.964H13.0977C13.1217 10.644 13.3097 11.148 13.6617 11.476C14.0137 11.804 14.4497 11.968 14.9697 11.968C15.4257 11.968 15.8097 11.852 16.1217 11.62C16.4417 11.388 16.6377 11.08 16.7097 10.696H18.1737C18.0857 11.16 17.9017 11.572 17.6217 11.932C17.3417 12.292 16.9777 12.576 16.5297 12.784C16.0817 12.984 15.5817 13.084 15.0297 13.084C14.3897 13.084 13.8217 12.948 13.3257 12.676C12.8377 12.404 12.4537 12.012 12.1737 11.5C11.8937 10.988 11.7537 10.384 11.7537 9.688C11.7537 9 11.8937 8.4 12.1737 7.888C12.4537 7.376 12.8377 6.984 13.3257 6.712C13.8217 6.44 14.3897 6.304 15.0297 6.304C15.6777 6.304 16.2417 6.44 16.7217 6.712C17.2097 6.976 17.5817 7.344 17.8377 7.816C18.1017 8.28 18.2337 8.8 18.2337 9.376ZM16.8537 9.34C16.8697 8.908 16.7937 8.548 16.6257 8.26C16.4657 7.964 16.2417 7.748 15.9537 7.612C15.6737 7.468 15.3657 7.396 15.0297 7.396C14.4937 7.396 14.0457 7.56 13.6857 7.888C13.3257 8.216 13.1297 8.7 13.0977 9.34H16.8537ZM28.8186 6.388L26.9826 13H25.4706L23.8386 7.888L22.1826 13H20.6826L18.8466 6.388H20.2266L21.4866 11.74L23.1426 6.388H24.5826L26.2626 11.74L27.5226 6.388H28.8186ZM40.8304 6.28C41.6144 6.28 42.2384 6.528 42.7024 7.024C43.1744 7.52 43.4104 8.228 43.4104 9.148V13H42.0424V9.292C42.0424 8.716 41.8984 8.272 41.6104 7.96C41.3224 7.64 40.9264 7.48 40.4224 7.48C39.8864 7.48 39.4584 7.652 39.1384 7.996C38.8264 8.332 38.6704 8.828 38.6704 9.484V13H37.3024V9.292C37.3024 8.716 37.1584 8.272 36.8704 7.96C36.5824 7.64 36.1864 7.48 35.6824 7.48C35.1464 7.48 34.7184 7.652 34.3984 7.996C34.0864 8.332 33.9304 8.828 33.9304 9.484V13H32.5624V6.388H33.9304V7.768C34.0984 7.288 34.3784 6.92 34.7704 6.664C35.1624 6.408 35.6224 6.28 36.1504 6.28C36.7024 6.28 37.1784 6.416 37.5784 6.688C37.9864 6.96 38.2824 7.352 38.4664 7.864C38.6584 7.368 38.9664 6.98 39.3904 6.7C39.8144 6.42 40.2944 6.28 40.8304 6.28ZM48.0317 6.304C48.6717 6.304 49.2477 6.44 49.7597 6.712C50.2717 6.984 50.6717 7.376 50.9597 7.888C51.2477 8.4 51.3917 9 51.3917 9.688C51.3917 10.384 51.2477 10.988 50.9597 11.5C50.6717 12.012 50.2717 12.404 49.7597 12.676C49.2477 12.948 48.6717 13.084 48.0317 13.084C47.3917 13.084 46.8157 12.948 46.3037 12.676C45.7997 12.404 45.3997 12.012 45.1037 11.5C44.8157 10.98 44.6717 10.376 44.6717 9.688C44.6717 9 44.8157 8.4 45.1037 7.888C45.3997 7.376 45.7997 6.984 46.3037 6.712C46.8157 6.44 47.3917 6.304 48.0317 6.304ZM48.0317 7.492C47.6797 7.492 47.3557 7.572 47.0597 7.732C46.7637 7.892 46.5237 8.14 46.3397 8.476C46.1637 8.804 46.0757 9.208 46.0757 9.688C46.0757 10.176 46.1637 10.584 46.3397 10.912C46.5237 11.24 46.7637 11.484 47.0597 11.644C47.3557 11.804 47.6797 11.884 48.0317 11.884C48.3837 11.884 48.7077 11.804 49.0037 11.644C49.2997 11.484 49.5357 11.24 49.7117 10.912C49.8957 10.584 49.9877 10.176 49.9877 9.688C49.9877 9.208 49.8957 8.804 49.7117 8.476C49.5357 8.14 49.2997 7.892 49.0037 7.732C48.7077 7.572 48.3837 7.492 48.0317 7.492ZM54.0749 7.684C54.2989 7.252 54.6189 6.912 55.0349 6.664C55.4509 6.408 55.9309 6.28 56.4749 6.28V7.768H56.0669C55.4669 7.768 54.9829 7.916 54.6149 8.212C54.2549 8.5 54.0749 8.98 54.0749 9.652V13H52.7069V6.388H54.0749V7.684ZM63.6439 9.376C63.6439 9.6 63.6279 9.796 63.5959 9.964H58.5079C58.5319 10.644 58.7199 11.148 59.0719 11.476C59.4239 11.804 59.8599 11.968 60.3799 11.968C60.8359 11.968 61.2199 11.852 61.5319 11.62C61.8519 11.388 62.0479 11.08 62.1199 10.696H63.5839C63.4959 11.16 63.3119 11.572 63.0319 11.932C62.7519 12.292 62.3879 12.576 61.9399 12.784C61.4919 12.984 60.9919 13.084 60.4399 13.084C59.7999 13.084 59.2319 12.948 58.7359 12.676C58.2479 12.404 57.8639 12.012 57.5839 11.5C57.3039 10.988 57.1639 10.384 57.1639 9.688C57.1639 9 57.3039 8.4 57.5839 7.888C57.8639 7.376 58.2479 6.984 58.7359 6.712C59.2319 6.44 59.7999 6.304 60.4399 6.304C61.0879 6.304 61.6519 6.44 62.1319 6.712C62.6199 6.976 62.9919 7.344 63.2479 7.816C63.5119 8.28 63.6439 8.8 63.6439 9.376ZM62.2639 9.34C62.2799 8.908 62.2039 8.548 62.0359 8.26C61.8759 7.964 61.6519 7.748 61.3639 7.612C61.0839 7.468 60.7759 7.396 60.4399 7.396C59.9039 7.396 59.4559 7.56 59.0959 7.888C58.7359 8.216 58.5399 8.7 58.5079 9.34H62.2639Z" fill="#E45301"/>
<path d="M72.75 9H83.25" stroke="#E45301" stroke-width="1.2" stroke-linecap="round" stroke-linejoin="round"/>
<path d="M78 3.75L83.25 9L78 14.25" stroke="#E45301" stroke-width="1.2" stroke-linecap="round" stroke-linejoin="round"/>
</svg>
