<svg width="16" height="16" viewBox="0 0 16 16" fill="none" xmlns="http://www.w3.org/2000/svg">
<g clip-path="url(#clip0_1178_2322)">
<path d="M13.2528 1.70867L13.9341 0.998047H2.08252L2.79315 1.70867L1.05908 3.15648H2.79315L14.8956 3.11492L13.2528 1.70867Z" fill="#F1BC19"/>
<path d="M1.90625 2.31199L1.93313 1.06543L2.62937 1.71855L1.90625 2.31199Z" fill="#D7955F"/>
<path d="M14.0937 2.31199L14.0669 1.06543L13.3706 1.71855L14.0937 2.31199Z" fill="#D7955F"/>
<path d="M5.1875 2.53125C5.44638 2.53125 5.65625 2.32138 5.65625 2.0625C5.65625 1.80362 5.44638 1.59375 5.1875 1.59375C4.92862 1.59375 4.71875 1.80362 4.71875 2.0625C4.71875 2.32138 4.92862 2.53125 5.1875 2.53125Z" fill="#836F61"/>
<path d="M10.8125 2.53125C11.0714 2.53125 11.2812 2.32138 11.2812 2.0625C11.2812 1.80362 11.0714 1.59375 10.8125 1.59375C10.5536 1.59375 10.3438 1.80362 10.3438 2.0625C10.3438 2.32138 10.5536 2.53125 10.8125 2.53125Z" fill="#836F61"/>
<path d="M1.10303 3.11898L2.73928 1.6543L2.76303 3.19898L1.10303 3.11898Z" fill="#FDE751"/>
<path d="M14.9237 3.11898L13.2874 1.6543L13.2637 3.19898L14.9237 3.11898Z" fill="#FDE751"/>
<path d="M15.0312 3.15625V13.7812C15.0312 14.4716 14.4716 15.0312 13.7812 15.0312H2.21875C1.52844 15.0312 0.96875 14.4716 0.96875 13.7812V3.15625H15.0312Z" fill="#FDE751"/>
<path d="M11.2812 4C11.1434 4 11.0312 4.11219 11.0312 4.25C11.0312 5.66281 9.67156 6.8125 8 6.8125C6.32844 6.8125 4.96875 5.66281 4.96875 4.25C4.96875 4.11219 4.85656 4 4.71875 4C4.58094 4 4.46875 4.11219 4.46875 4.25C4.46875 5.93875 6.05281 7.3125 8 7.3125C9.94719 7.3125 11.5312 5.93875 11.5312 4.25C11.5312 4.11219 11.4191 4 11.2812 4Z" fill="white"/>
<path d="M10.6563 15.0307L10.8325 12.8432H11.9609C12.2313 12.8432 12.47 12.6701 12.555 12.4135C12.5912 12.3038 12.6284 12.181 12.6597 12.0557C12.7578 11.662 12.4581 11.281 12.0522 11.281H11.145C11.145 11.281 11.0666 10.1063 11.6306 9.25415C11.965 8.74884 12.5525 8.46853 13.1584 8.46853H13.6959C13.8519 8.46853 13.985 8.35447 14.0056 8.19978C14.0744 7.68134 14.0913 6.59353 13.02 6.59353C13.02 6.59353 10.0513 6.43728 8.9575 9.09353C8.9575 9.09353 8.46875 10.031 8.46875 11.281L3.63844 11.2735L6.08437 11.9692L4.67063 12.156L6.4575 12.5307L2.53125 12.8432L8.37313 13.1557L8.18625 14.9626" fill="#2D80D3"/>
</g>
<defs>
<clipPath id="clip0_1178_2322">
<rect width="15" height="15" fill="white" transform="translate(0.5 0.5)"/>
</clipPath>
</defs>
</svg>
