<svg width="51" height="20" viewBox="0 0 51 20" fill="none" xmlns="http://www.w3.org/2000/svg">
<rect width="20" height="20" rx="4" fill="white"/>
<g clip-path="url(#clip0_1178_2319)">
<path d="M15.2528 3.70867L15.9341 2.99805H4.08252L4.79315 3.70867L3.05908 5.15648H4.79315L16.8956 5.11492L15.2528 3.70867Z" fill="#F1BC19"/>
<path d="M3.90625 4.31199L3.93313 3.06543L4.62937 3.71855L3.90625 4.31199Z" fill="#D7955F"/>
<path d="M16.0937 4.31199L16.0669 3.06543L15.3706 3.71855L16.0937 4.31199Z" fill="#D7955F"/>
<path d="M7.1875 4.53125C7.44638 4.53125 7.65625 4.32138 7.65625 4.0625C7.65625 3.80362 7.44638 3.59375 7.1875 3.59375C6.92862 3.59375 6.71875 3.80362 6.71875 4.0625C6.71875 4.32138 6.92862 4.53125 7.1875 4.53125Z" fill="#836F61"/>
<path d="M12.8125 4.53125C13.0714 4.53125 13.2812 4.32138 13.2812 4.0625C13.2812 3.80362 13.0714 3.59375 12.8125 3.59375C12.5536 3.59375 12.3438 3.80362 12.3438 4.0625C12.3438 4.32138 12.5536 4.53125 12.8125 4.53125Z" fill="#836F61"/>
<path d="M3.10303 5.11898L4.73928 3.6543L4.76303 5.19898L3.10303 5.11898Z" fill="#FDE751"/>
<path d="M16.9237 5.11898L15.2874 3.6543L15.2637 5.19898L16.9237 5.11898Z" fill="#FDE751"/>
<path d="M17.0312 5.15625V15.7812C17.0312 16.4716 16.4716 17.0312 15.7812 17.0312H4.21875C3.52844 17.0312 2.96875 16.4716 2.96875 15.7812V5.15625H17.0312Z" fill="#FDE751"/>
<path d="M13.2812 6C13.1434 6 13.0312 6.11219 13.0312 6.25C13.0312 7.66281 11.6716 8.8125 10 8.8125C8.32844 8.8125 6.96875 7.66281 6.96875 6.25C6.96875 6.11219 6.85656 6 6.71875 6C6.58094 6 6.46875 6.11219 6.46875 6.25C6.46875 7.93875 8.05281 9.3125 10 9.3125C11.9472 9.3125 13.5312 7.93875 13.5312 6.25C13.5312 6.11219 13.4191 6 13.2812 6Z" fill="white"/>
<path d="M12.6563 17.0307L12.8325 14.8432H13.9609C14.2313 14.8432 14.47 14.6701 14.555 14.4135C14.5912 14.3038 14.6284 14.181 14.6597 14.0557C14.7578 13.662 14.4581 13.281 14.0522 13.281H13.145C13.145 13.281 13.0666 12.1063 13.6306 11.2542C13.965 10.7488 14.5525 10.4685 15.1584 10.4685H15.6959C15.8519 10.4685 15.985 10.3545 16.0056 10.1998C16.0744 9.68134 16.0913 8.59353 15.02 8.59353C15.02 8.59353 12.0513 8.43728 10.9575 11.0935C10.9575 11.0935 10.4688 12.031 10.4688 13.281L5.63844 13.2735L8.08437 13.9692L6.67063 14.156L8.4575 14.5307L4.53125 14.8432L10.3731 15.1557L10.1863 16.9626" fill="#2D80D3"/>
</g>
<path d="M25.96 5.116L28.802 13.292L31.658 5.116H33.394L29.824 15H27.78L24.224 5.116H25.96ZM39.7713 15L37.3073 11.052H36.1733V15H34.5773V5.116H38.0633C39.1927 5.116 40.0467 5.39133 40.6253 5.942C41.2133 6.49267 41.5073 7.22067 41.5073 8.126C41.5073 8.90067 41.288 9.53533 40.8493 10.03C40.42 10.5247 39.7947 10.842 38.9733 10.982L41.5633 15H39.7713ZM36.1733 9.918H37.9373C39.2253 9.918 39.8693 9.34867 39.8693 8.21C39.8693 7.66867 39.7107 7.24867 39.3933 6.95C39.0853 6.642 38.6 6.488 37.9373 6.488H36.1733V9.918ZM44.5405 11.164V15H42.9445V5.116H46.3045C47.4432 5.116 48.2972 5.38667 48.8665 5.928C49.4452 6.46933 49.7345 7.21133 49.7345 8.154C49.7345 9.08733 49.4405 9.82467 48.8525 10.366C48.2645 10.898 47.4152 11.164 46.3045 11.164H44.5405ZM46.1365 9.862C47.4525 9.862 48.1105 9.29267 48.1105 8.154C48.1105 7.594 47.9518 7.16933 47.6345 6.88C47.3265 6.58133 46.8272 6.432 46.1365 6.432H44.5405V9.862H46.1365Z" fill="#2F3567"/>
<defs>
<clipPath id="clip0_1178_2319">
<rect width="15" height="15" fill="white" transform="translate(2.5 2.5)"/>
</clipPath>
</defs>
</svg>
